<svg xmlns="http://www.w3.org/2000/svg" width="123" height="77" fill="none" viewBox="0 0 123 77">
    <path fill="#EEEAF4" d="M118.815 76.576c.801-1.522 2.746-6.005 3.838-15.222 1.399-11.81-4.972-19.58-6.527-23.785-1.554-4.205 3.428-13.05-3.729-21.755-7.156-8.704-19.111-8.54-25.794-5.12-6.682 3.42-15.222 6.99-22.072.463C57.68 4.63 52.919 1.52 41.916.171c-11.524-1.412-29.85 5.921-28.552 21.46C14.647 36.954 3.839 34.927.832 49.541-2.737 66.856 6.272 75.1 7.25 76.576h111.565z"/>
    <path fill="#B0D4FF" d="M66.436 44.532c-.087.12-.132.265-.13.413.001.148.05.292.14.41.015.02.028.04.038.062 3.37 2.032 13.488 10.258 13.488 16.058v12.008H49.438V61.466c0-5.837 10.255-14.19 13.553-16.114.09-.12.14-.265.14-.415-.001-.151-.05-.298-.14-.42-3.306-1.965-13.554-10.26-13.554-16.096V16.413h30.535v12.015c0 5.825-10.223 14.164-13.536 16.104z"/>
    <path fill="#F2776B" d="M49.052 73.486H80.18c.203 0 .404.04.591.118.187.078.357.192.5.336.144.144.257.314.334.502.078.187.117.388.117.59v1.544H47.443v-1.482c0-.212.041-.421.122-.617.08-.195.199-.373.348-.523.15-.15.327-.268.522-.35.196-.08.405-.123.617-.123v.005z"/>
    <path fill="#A4C8FC" d="M58.177 62.21c-.155 2.687.351 8.488.308 11.273h-9.047V61.466c0-5.837 10.255-14.19 13.553-16.114.09-.12.14-.265.14-.415-.001-.151-.05-.298-.14-.42-3.306-1.965-13.554-10.26-13.554-16.096V16.413h6.052l4.32 1.186v9.505c-.22 1.833.002 3.693.65 5.422 1.071 2.687 3.37 11.309 3.334 12.428-.036 1.119-5.347 12.649-5.616 17.257z"/>
    <path fill="#5C2D90" d="M76.014 24.397c-3.445.171-6.86.73-10.18 1.667-3.521.892-9.603.22-12.817-.241-.266-.037-.537-.017-.794.06-.257.076-.495.207-.697.383-.203.176-.365.393-.476.637-.112.245-.17.51-.17.778v1.384c0 3.814 10.23 12.077 12.935 14.195.202.159.365.362.478.593.112.231.17.485.17.742v21.21c0 .355-.087.706-.252 1.022-.165.316-.404.587-.696.791-2.13 1.495-5.711 5.866-5.711 5.866H71.36c-1.753-2.06-3.65-3.992-5.676-5.784-.23-.177-.417-.403-.545-.663-.129-.26-.196-.546-.196-.836V44.587c0-.256.057-.509.168-.74.11-.23.27-.433.47-.593 2.652-2.131 12.658-10.425 12.658-14.236v-2.422c.001-.291-.056-.58-.168-.848-.112-.269-.276-.513-.483-.717-.207-.205-.452-.367-.722-.475-.27-.11-.56-.163-.85-.16h-.003z"/>
    <path fill="#F2776B" d="M47.443 14.504h34.279v1.489c0 .21-.04.419-.12.613-.081.195-.199.371-.347.52-.149.15-.325.268-.52.349-.194.08-.402.122-.612.123H48.985c-.41-.001-.802-.165-1.09-.454-.29-.29-.452-.683-.452-1.093v-1.547z"/>
    <path fill="#F97068" d="M105.797 48.434c.048.403-.033.81-.23 1.164-.721 1.302-1.079 2.774-1.036 4.262.139.966.129 1.948-.031 2.91-.464 1.617-2.179 2.618-2.733 4.207-.491 1.41-.034 3.183-1.054 4.277-.113.148-.267.258-.443.32-.176.06-.365.067-.545.021-.169-.082-.316-.203-.428-.353-1.169-1.32-2.421-2.921-2.059-4.64.337-1.617 2.015-2.709 2.333-4.328.258-1.323-.422-2.852.34-3.965.211-.313.513-.544.741-.834.91-1.157.573-3.005 1.618-4.04.342-.324.771-.542 1.235-.626.259-.054.527-.054.787 0s.505.162.722.315c.215.153.396.35.531.576.136.227.222.48.254.742l-.002-.008z"/>
    <path fill="#FFA6A4" d="M99.15 68.965c-.073-.862-.102-1.726-.133-2.59.038-.863.085-1.725.157-2.585.073-.86.174-1.723.315-2.58.139-.866.38-1.712.721-2.52.63-1.575 1.14-3.233 1.653-4.872l.746-2.47c.308-.803.606-1.612.894-2.426-.126.857-.315 1.698-.498 2.542l-.729 2.477c-.52 1.645-1.019 3.29-1.668 4.91-.328.78-.561 1.597-.695 2.433-.148.834-.246 1.69-.315 2.542-.07.854-.123 1.71-.154 2.568l-.295 2.571z"/>
    <path fill="#FFA6A4" d="M103.73 51.495c-.142.204-.32.38-.525.52-.106.062-.217.117-.331.165-.115.053-.221.123-.315.21l-.04.034-.035-.053c-.081-.125-.185-.244-.261-.37-.076-.127-.157-.257-.227-.392-.135-.27-.229-.56-.278-.86h.025c.209.22.385.47.52.742.066.134.119.272.176.412.057.14.085.288.139.432l-.076-.019c.106-.06.202-.136.286-.225.083-.093.17-.182.262-.266.195-.153.417-.27.655-.343l.025.014zM103.519 54.441c-.148.123-.315.253-.463.366-.16.117-.328.222-.504.314-.176.084-.365.15-.538.247-.17.1-.332.213-.485.338l-.053.044-.054-.069c-.231-.312-.44-.638-.628-.977-.186-.343-.339-.702-.457-1.073h.025c.258.291.489.605.689.938.193.336.365.684.513 1.042l-.11-.025c.181-.08.355-.175.52-.285.164-.11.315-.247.469-.366.159-.12.33-.225.509-.313.179-.094.37-.164.567-.206v.026zM102.461 58.319c-.159.153-.338.284-.532.39-.187.114-.393.195-.607.241-.214.051-.414.146-.589.278-.173.132-.342.278-.516.389l-.132.084-.097-.144c-.148-.212-.274-.438-.378-.675-.108-.24-.19-.49-.243-.748h.029c.19.182.36.384.506.603.146.214.27.44.371.679l-.23-.06c.203-.1.414-.182.63-.247.209-.068.403-.174.573-.313.167-.143.357-.255.563-.332.207-.086.425-.141.649-.162l.003.017z"/>
    <path fill="#FDCA7B" d="M97.768 69.131c-.677-.109-3.22-.916-3.042-1.564.762-2.83 1.524-6.04-1.117-7.426-1.259-.666-2.864-1.003-3.585-2.24-.721-1.235-.198-2.882.472-4.192.671-1.31 1.473-2.715 1.187-4.156-.315-1.51-1.738-2.624-1.968-4.146-.315-2.076 1.716-3.752 3.668-4.562.645-.33 1.377-.451 2.094-.344.498.138.942.424 1.275.82 1.372 1.522 1.315 3.817 1.001 5.836-.314 2.019-.79 4.15-.025 6.044.545 1.348 1.707 2.614 1.394 4.031-.122.569-.478 1.064-.63 1.629-.365 1.523.91 2.895 1.493 4.35.356.949.433 1.98.222 2.972s-.701 1.902-1.413 2.625c-.134.134-.298.234-.478.293-.181.058-.373.072-.56.041l.012-.01z"/>
    <path fill="#F97068" d="M98.007 69.165c-.155-1.123-.315-2.24-.513-3.346-.048-.278-.108-.556-.151-.834-.044-.277-.07-.555-.113-.833-.084-.556-.18-1.109-.287-1.658-.197-1.1-.48-2.185-.846-3.242-.178-.514-.417-1.004-.712-1.46-.137-.21-.31-.394-.513-.541-.264-.167-.496-.379-.687-.626-.357-.515-.531-1.134-.494-1.76.025-.581.11-1.159.252-1.723.26-1.112.592-2.19.774-3.277.215-1.073.192-2.18-.066-3.243-.092-.256-.16-.516-.245-.775-.086-.259-.19-.51-.315-.753-.262-.497-.578-.964-.944-1.39.456.352.864.763 1.212 1.223.176.233.335.478.475.735.143.256.25.532.315.819.28 1.136.307 2.32.079 3.467-.186 1.133-.526 2.224-.778 3.309-.135.529-.216 1.07-.242 1.616-.037.513.102 1.022.393 1.445.154.2.343.373.556.51.256.183.476.413.649.677.32.488.579 1.013.77 1.564.376 1.08.669 2.185.876 3.309.107.555.202 1.115.286 1.68.041.277.093.555.126.84.034.286.041.567.06.85.06 1.154.105 2.286.083 3.417z"/>
    <path fill="#F97068" d="M93.505 47.061c.187.075.359.181.51.314.154.118.29.259.4.418.096.168.21.326.34.47.14.134.288.26.444.374h-.201c.066-.147.15-.278.227-.422.075-.14.16-.275.252-.404.093-.128.185-.253.286-.378.101-.125.205-.244.293-.378h.034c-.002.17-.036.337-.1.494-.057.155-.127.306-.208.45-.078.14-.166.276-.264.403-.097.132-.203.259-.315.378l-.126.131-.076-.118c-.092-.166-.197-.324-.315-.472-.133-.14-.283-.264-.447-.366-.154-.114-.291-.248-.41-.398-.125-.147-.237-.303-.337-.469l.013-.027zM95.97 51.358c-.085.19-.19.368-.315.532-.116.165-.246.32-.388.463-.148.141-.314.26-.472.385-.153.131-.291.28-.412.44l-.041.05-.057-.043c-.186-.15-.36-.315-.52-.493-.154-.173-.314-.339-.463-.52-.148-.18-.278-.365-.405-.555-.128-.19-.243-.394-.378-.578l.018-.028c.212.113.406.256.576.425.17.158.33.329.476.51.148.175.278.37.412.556.134.185.25.403.378.562h-.093c.155-.128.296-.273.42-.432.116-.163.222-.338.346-.493.128-.148.265-.287.412-.417.148-.139.306-.267.472-.384l.034.02zM91.437 54.667c.214.25.434.478.661.697.227.22.473.413.712.626.239.215.521.378.828.478.307.084.626.12.945.106l-.14.093c.06-.26.134-.516.224-.766.082-.252.188-.496.315-.729.132-.237.29-.458.473-.66.178-.207.404-.369.657-.472l.019.028c-.188.175-.349.376-.478.598-.13.216-.25.44-.356.669l-.315.693c-.107.235-.198.476-.29.714l-.044.112-.098-.016c-.33-.061-.653-.152-.966-.272-.315-.123-.63-.225-.945-.378-.595-.326-1.045-.866-1.259-1.51l.057-.011zM97.566 57.196c.1.25.146.519.132.788-.006.27-.056.535-.148.789-.1.248-.238.48-.406.688l-.475.625-.031.048-.057-.041c-.265-.174-.541-.329-.828-.463-.278-.148-.563-.278-.853-.398-.29-.12-.577-.247-.872-.357-.296-.109-.595-.215-.9-.331v-.034c.659-.01 1.312.123 1.916.388.299.135.586.294.86.475.269.187.522.396.755.625h-.093c.182-.18.33-.392.438-.625.1-.23.183-.465.248-.707.157-.475.25-.97.278-1.47h.036z"/>
    <path fill="#B4DFF9" d="M102.393 76.436H95.12c-.352-.023-.683-.174-.931-.424-.249-.25-.396-.584-.416-.936l-1.14-8.868c-.043-.21-.043-.428.002-.638.046-.211.135-.41.262-.583.127-.174.289-.32.476-.427.186-.107.393-.174.608-.196h9.558c.214.022.421.089.608.196.186.107.349.253.475.427.127.173.217.372.262.583.045.21.046.428.002.638l-1.149 8.868c-.024.35-.174.68-.42.93-.247.249-.575.402-.924.43z"/>
    <path fill="#A2D4F9" d="M103.529 64.363h-1.575c.214.022.421.089.608.196.186.107.348.253.475.427.127.173.216.372.262.582.045.21.046.429.002.64l-1.149 8.867c-.022.352-.171.683-.418.933-.248.25-.578.402-.929.427h1.575c.352-.023.683-.174.931-.424.249-.25.396-.584.416-.936l1.149-8.868c.044-.21.043-.428-.002-.638-.046-.211-.135-.41-.262-.584-.127-.173-.289-.319-.475-.426-.187-.107-.394-.174-.608-.196z"/>
    <path fill="#F97068" d="M39.476 48.434c.048.403-.032.81-.23 1.164-.72 1.302-1.079 2.774-1.035 4.262.139.966.128 1.948-.032 2.91-.463 1.617-2.178 2.618-2.732 4.207-.491 1.41-.034 3.183-1.054 4.277-.114.148-.268.258-.443.32-.176.06-.366.067-.546.021-.168-.082-.315-.203-.428-.353-1.168-1.32-2.42-2.921-2.058-4.64.337-1.617 2.014-2.709 2.332-4.328.259-1.323-.421-2.852.34-3.965.211-.313.513-.544.741-.834.91-1.157.573-3.005 1.619-4.04.342-.324.77-.542 1.234-.626.26-.054.528-.054.788 0s.505.162.721.315c.215.153.397.35.532.576.135.227.222.48.254.742l-.003-.008z"/>
    <path fill="#FFA6A4" d="M32.829 68.965c-.073-.862-.101-1.726-.133-2.59.038-.863.086-1.725.158-2.585.072-.86.173-1.723.315-2.58.138-.866.38-1.712.72-2.52.63-1.575 1.14-3.233 1.653-4.872l.746-2.47c.309-.803.607-1.612.894-2.426-.126.857-.315 1.698-.497 2.542l-.73 2.477c-.52 1.645-1.019 3.29-1.667 4.91-.328.78-.562 1.597-.696 2.433-.148.834-.245 1.69-.315 2.542-.07.854-.123 1.71-.154 2.568l-.294 2.571z"/>
    <path fill="#FFA6A4" d="M37.41 51.495c-.143.204-.32.38-.525.52-.107.062-.218.117-.331.165-.116.053-.222.123-.315.21l-.04.034-.035-.053c-.082-.125-.186-.244-.261-.37-.076-.127-.158-.257-.227-.392-.136-.27-.23-.56-.278-.86h.025c.209.22.384.47.52.742.065.134.119.272.175.412.057.14.086.288.14.432l-.077-.019c.106-.06.203-.136.287-.225.082-.093.17-.182.26-.266.197-.153.419-.27.656-.343l.026.014zM37.199 54.441c-.148.123-.315.253-.463.366-.16.117-.329.222-.505.314-.175.084-.364.15-.538.247-.17.1-.332.213-.484.338l-.054.044-.054-.069c-.23-.312-.44-.638-.628-.977-.185-.343-.338-.702-.457-1.073h.025c.258.291.489.605.69.938.193.336.364.684.513 1.042l-.11-.025c.18-.08.355-.175.52-.285.163-.11.314-.247.468-.366.16-.12.33-.225.51-.313.178-.094.37-.164.567-.206v.026zM36.14 58.319c-.159.153-.337.284-.531.39-.188.114-.393.195-.608.241-.213.051-.413.146-.588.278-.173.132-.343.278-.516.389l-.133.084-.097-.144c-.147-.212-.274-.438-.378-.675-.108-.24-.189-.49-.243-.748h.03c.19.182.36.384.506.603.145.214.27.44.37.679l-.23-.06c.203-.1.414-.182.63-.247.21-.068.404-.174.573-.313.167-.143.358-.255.564-.332.206-.086.425-.141.648-.162l.004.017z"/>
    <path fill="#FDCA7B" d="M31.447 69.131c-.677-.109-3.22-.916-3.041-1.564.761-2.83 1.524-6.04-1.117-7.426-1.26-.666-2.865-1.003-3.586-2.24-.72-1.235-.198-2.882.473-4.192.67-1.31 1.473-2.715 1.187-4.156-.316-1.51-1.738-2.624-1.968-4.146-.315-2.076 1.715-3.752 3.668-4.562.644-.33 1.377-.451 2.093-.344.498.138.943.424 1.275.82 1.372 1.522 1.316 3.817 1.002 5.836-.314 2.019-.79 4.15-.026 6.044.545 1.348 1.707 2.614 1.395 4.031-.123.569-.478 1.064-.63 1.629-.365 1.523.91 2.895 1.492 4.35.356.949.433 1.98.222 2.972-.21.992-.7 1.902-1.412 2.625-.134.134-.298.234-.479.293-.18.058-.372.072-.56.041l.012-.01z"/>
    <path fill="#F97068" d="M31.686 69.165c-.154-1.123-.315-2.24-.513-3.346-.047-.278-.107-.556-.15-.834-.044-.277-.07-.555-.114-.833-.084-.556-.18-1.109-.286-1.658-.198-1.1-.48-2.185-.847-3.242-.178-.514-.416-1.004-.712-1.46-.136-.21-.31-.394-.513-.541-.263-.167-.496-.379-.686-.626-.357-.515-.532-1.134-.495-1.76.025-.581.11-1.159.252-1.723.261-1.112.592-2.19.775-3.277.214-1.073.192-2.18-.066-3.243-.093-.256-.16-.516-.246-.775-.085-.259-.19-.51-.315-.753-.261-.497-.578-.964-.944-1.39.457.352.864.763 1.212 1.223.177.233.336.478.475.735.144.256.25.532.315.819.28 1.136.308 2.32.079 3.467-.185 1.133-.525 2.224-.777 3.309-.136.529-.217 1.07-.243 1.616-.036.513.103 1.022.394 1.445.154.2.342.373.556.51.256.183.476.413.648.677.32.488.58 1.013.77 1.564.377 1.08.67 2.185.876 3.309.107.555.203 1.115.287 1.68.04.277.092.555.126.84.033.286.04.567.06.85.06 1.154.105 2.286.082 3.417z"/>
    <path fill="#F97068" d="M27.185 47.061c.186.075.358.181.51.314.154.118.289.259.4.418.096.168.21.326.34.47.139.134.287.26.443.374h-.2c.065-.147.15-.278.226-.422.076-.14.16-.275.252-.404.093-.128.186-.253.287-.378.1-.125.204-.244.292-.378h.035c-.003.17-.037.337-.101.494-.057.155-.127.306-.208.45-.078.14-.166.276-.264.403-.097.132-.202.259-.315.378l-.126.131-.076-.118c-.091-.166-.197-.324-.315-.472-.133-.14-.283-.264-.446-.366-.154-.114-.292-.248-.41-.398-.125-.147-.238-.303-.337-.469l.013-.027zM29.65 51.358c-.085.19-.19.368-.316.532-.116.165-.245.32-.387.463-.148.141-.315.26-.473.385-.153.131-.291.28-.412.44l-.04.05-.057-.043c-.187-.15-.36-.315-.52-.493-.155-.173-.315-.339-.463-.52-.148-.18-.278-.365-.406-.555-.128-.19-.243-.394-.378-.578l.019-.028c.212.113.406.256.576.425.17.158.33.329.475.51.148.175.278.37.412.556.135.185.25.403.378.562h-.092c.155-.128.295-.273.418-.432.117-.163.224-.338.347-.493.128-.148.266-.287.412-.417.149-.139.306-.267.473-.384l.033.02zM25.116 54.667c.214.25.434.478.662.697.227.22.472.413.711.626.24.215.522.378.828.478.308.084.627.12.945.106l-.139.093c.059-.26.133-.516.223-.766.083-.252.188-.496.316-.729.132-.237.29-.458.472-.66.179-.207.404-.369.658-.472l.018.028c-.187.175-.348.376-.478.598-.13.216-.249.44-.355.669l-.316.693c-.107.235-.198.476-.29.714l-.044.112-.097-.016c-.33-.061-.653-.152-.966-.272-.316-.123-.63-.225-.945-.378-.596-.326-1.046-.866-1.26-1.51l.057-.011zM31.245 57.196c.101.25.146.519.133.788-.007.27-.057.535-.148.789-.102.248-.238.48-.406.688l-.475.625-.032.048-.056-.041c-.265-.174-.542-.329-.829-.463-.278-.148-.563-.278-.853-.398-.29-.12-.576-.247-.872-.357-.295-.109-.595-.215-.9-.331v-.034c.66-.01 1.313.123 1.917.388.298.135.586.294.86.475.268.187.52.396.754.625h-.092c.182-.18.33-.392.437-.625.1-.23.183-.465.248-.707.158-.475.251-.97.278-1.47h.036z"/>
    <path fill="#B4DFF9" d="M36.072 76.436H28.8c-.352-.023-.684-.174-.932-.424s-.396-.584-.415-.936l-1.14-8.868c-.044-.21-.043-.428.002-.638.045-.211.134-.41.261-.583.127-.174.29-.32.476-.427.187-.107.394-.174.608-.196h9.558c.214.022.421.089.608.196.187.107.349.253.476.427.127.173.216.372.261.583.046.21.046.428.002.638l-1.148 8.868c-.025.35-.174.68-.42.93-.247.249-.575.402-.925.43z"/>
    <path fill="#A2D4F9" d="M37.208 64.363h-1.575c.214.022.421.089.608.196.187.107.349.253.476.427.127.173.216.372.261.582.045.21.046.429.002.64l-1.149 8.867c-.022.352-.17.683-.418.933-.248.25-.578.402-.929.427h1.575c.352-.023.684-.174.932-.424s.396-.584.415-.936l1.15-8.868c.043-.21.043-.428-.003-.638-.045-.211-.134-.41-.261-.584-.127-.173-.29-.319-.476-.426-.187-.107-.394-.174-.608-.196z"/>
</svg>
