<svg xmlns="http://www.w3.org/2000/svg" width="123" height="82" fill="none" viewBox="0 0 123 82">
    <path fill="#EEEAF4" d="M118.815 81.4c.801-1.522 2.746-6.006 3.838-15.223 1.399-11.81-4.972-19.58-6.527-23.784-1.554-4.206 3.428-13.051-3.729-21.755-7.156-8.704-19.111-8.54-25.794-5.12-6.682 3.419-15.222 6.99-22.072.463-6.85-6.528-11.612-9.637-22.615-10.986-11.524-1.412-29.85 5.92-28.552 21.459C14.647 41.778 3.839 39.75.832 54.366-2.737 71.68 6.272 79.923 7.25 81.4h111.565z"/>
    <path fill="#263238" d="M34.754 19.684s-.45.025-1.004.03c-.554.006-1.005 0-1.005-.013 0-.014.448-.025 1.005-.03.556-.004 1.004-.004 1.004.013zM34.76 20.2s-.45.024-1.008.027c-.556.003-1.004 0-1.004 0s.45-.025 1.004-.03c.554-.006 1.008 0 1.008.013M34.762 20.712s-.45.025-1.004.03c-.554.006-1.004 0-1.004-.013 0-.014.447-.025 1.004-.03.557-.006 1.004 0 1.004.013z"/>
    <path fill="#D1D1D1" d="M49.778 11.257h-1.97c-.195-.018-.392.004-.578.063-.2.08-.366.228-.47.417-.054.098-.09.205-.109.315-.015.116-.02.232-.016.348v.365c.004.126-.005.252-.025.377-.028.13-.081.252-.156.36-.076.11-.172.202-.283.273-.118.074-.25.12-.387.137h-7.55c-.093.003-.186-.007-.277-.027-.191-.049-.363-.155-.491-.305-.131-.15-.214-.337-.24-.535-.006-.098-.006-.197 0-.296v-.294c.018-.196-.002-.393-.057-.582-.066-.187-.19-.35-.354-.463-.165-.114-.364-.17-.565-.156h-4.582c-.46-.019-.917.068-1.338.255-.42.186-.792.467-1.086.82-.304.366-.518.797-.626 1.26-.03.114-.039.235-.06.353-.021.118 0 .203-.014.305v48.592c-.008.322.032.644.12.954.196.656.61 1.226 1.171 1.616.565.382 1.24.57 1.921.532h19.805c.624-.037 1.22-.268 1.706-.662.237-.197.445-.427.617-.682.166-.254.293-.532.376-.823.08-.295.12-.6.115-.905v-4.55c0-9.56 0-18.167.017-25.397.016-7.23 0-13.078.016-17.121v-1.434c.01-.418-.066-.835-.222-1.224-.135-.33-.328-.635-.57-.9-.2-.22-.43-.41-.686-.561-.344-.212-.73-.347-1.13-.398-.102-.017-.205-.027-.308-.028h-1.725"/>
    <path fill="#263238" d="M52.008 16.146c0 .014-.502.03-1.119.033-.617.003-1.122 0-1.122-.014s.502-.027 1.12-.032c.616-.005 1.121-.004 1.121.013zM52.014 16.716c0 .014-.503.03-1.122.032-.62.003-1.12 0-1.12-.014s.503-.027 1.12-.032c.617-.005 1.122 0 1.122.014zM52.017 17.29c0 .013-.5.029-1.12.032-.62.003-1.122 0-1.122-.014s.503-.028 1.122-.033c.62-.004 1.12 0 1.12.014z"/>
    <path fill="#F97068" d="M43.828 21.083c0 .468-.162.92-.458 1.282-.297.362-.71.61-1.169.7-.459.092-.935.021-1.347-.2-.413-.22-.736-.577-.915-1.009-.179-.432-.202-.913-.066-1.36.135-.448.422-.834.811-1.094.389-.26.856-.377 1.321-.331.466.046.9.252 1.231.582.38.38.592.894.593 1.43z"/>
    <path fill="#FDCA7B" d="M42.5 21.9h-1.39v-.156c0-.185.074-.361.204-.492.13-.13.307-.203.491-.203s.361.073.491.203.204.307.204.492v.156z"/>
    <path fill="#FDCA7B" d="M42.213 20.676c-.001.094-.034.185-.094.257-.06.072-.144.121-.236.139-.092.017-.187.003-.27-.042-.082-.045-.146-.117-.182-.204-.035-.087-.04-.183-.012-.273.028-.09.086-.167.164-.218.079-.052.172-.075.266-.066.093.01.18.052.246.118.038.038.068.084.088.133.02.05.03.103.03.156z"/>
    <path fill="#263238" d="M46.843 26.43c-1.782.155-3.572.207-5.36.156-1.79.051-3.58-.001-5.362-.156 1.782-.158 3.573-.21 5.362-.16 1.788-.053 3.578 0 5.36.16z"/>
    <path fill="#DCF1FF" d="M30.51 40.863l-.092 16.082 21.401.12.093-16.083-21.401-.12z"/>
    <path fill="#5C2D90" d="M30.42 56.946l7.53-9.958 4.596 6.282 3.158-3.327 6.114 7.12-21.398-.117z"/>
    <path fill="#DCF1FF" d="M42.768 31.76l-.04 6.956 9.259.052.039-6.957-9.258-.052z"/>
    <path fill="#50BFA8" d="M42.725 38.715l3.258-4.307 1.987 2.716 1.366-1.437 2.647 3.08-9.258-.052z"/>
    <path fill="#E8505B" d="M48.84 33.896c-.001.18-.07.354-.191.487-.122.134-.29.217-.469.233-.18.017-.36-.033-.504-.142-.144-.108-.243-.266-.278-.444-.034-.177-.001-.36.093-.515.093-.154.241-.268.414-.32.173-.051.36-.037.522.042.163.078.29.214.359.38.036.09.054.184.054.279z"/>
    <path fill="#000" d="M48.84 33.896c-.001.18-.07.354-.191.487-.122.134-.29.217-.469.233-.18.017-.36-.033-.504-.142-.144-.108-.243-.266-.278-.444-.034-.177-.001-.36.093-.515.093-.154.241-.268.414-.32.173-.051.36-.037.522.042.163.078.29.214.359.38.036.09.054.184.054.279z" opacity=".2"/>
    <path fill="#D1D1D1" d="M94.703 10.731h-1.97c-.2-.02-.401.001-.592.063-.2.08-.366.228-.469.417-.054.098-.091.204-.11.315-.015.116-.02.234-.016.351v.362c.004.126-.004.252-.025.377-.028.129-.08.252-.156.36-.075.11-.172.202-.283.273-.117.074-.25.12-.387.137h-7.548c-.094.003-.187-.007-.278-.027-.191-.049-.363-.155-.491-.305-.133-.155-.216-.346-.24-.549-.005-.099-.005-.197 0-.296v-.294c.018-.196-.001-.393-.056-.582-.066-.187-.189-.35-.352-.463-.167-.113-.366-.168-.568-.156h-4.568c-.46-.019-.917.07-1.338.256-.42.187-.792.468-1.086.822-.304.365-.518.796-.626 1.259-.03.118-.038.236-.06.354s0 .203-.014.305v48.607c-.008.322.032.644.12.954.196.656.61 1.225 1.172 1.616.564.382 1.24.569 1.92.531h19.805c.624-.036 1.22-.268 1.705-.661.239-.196.447-.427.618-.683.166-.254.293-.531.376-.823.082-.294.12-.599.115-.905V32.401c0-7.227 0-13.079.016-17.123v-1.431c.01-.419-.066-.835-.221-1.224-.202-.49-.528-.92-.946-1.246-.419-.327-.915-.538-1.44-.614-.101-.017-.204-.026-.307-.027h-1.731"/>
    <path fill="#263238" d="M96.933 15.683c0 .014-.5.028-1.119.032-.618.005-1.122 0-1.122 0s.503-.032 1.12-.032h1.121zM96.939 16.258s-.501.028-1.122.034c-.62.005-1.12 0-1.12-.014s.503-.028 1.12-.034c.617-.005 1.122 0 1.122.014zM96.942 16.825c0 .014-.499.028-1.12.033-.62.004-1.119 0-1.119-.014s.5-.028 1.12-.034c.62-.005 1.119.002 1.119.015zM76.552 17.481h.656v-.532c.008-.038.028-.074.057-.1.03-.027.066-.044.106-.048h.227c.044.007.085.03.113.064.029.034.044.077.044.121v.505l-.022-.022h.603l-.022.025v-.962c-.002-.028-.011-.056-.026-.081s-.035-.046-.06-.061l-.278-.26-.254-.252-.124-.121c-.043-.04-.076-.085-.126-.093-.023-.006-.047-.007-.07-.003-.025.005-.047.014-.067.028l-.112.113c-.074.074-.145.148-.217.216-.137.143-.278.278-.38.395-.031.07-.042.149-.03.225v-.115c-.001-.045.012-.09.035-.129.11-.134.244-.257.382-.403l.214-.22c.037-.04.076-.078.118-.114.024-.018.052-.03.082-.037.03-.006.061-.005.09.002.058.02.108.057.146.104l.123.12.258.252.278.258c.025.022.048.047.069.074.02.03.03.065.03.102v.968h-.648v-.527c0-.036-.01-.07-.033-.097-.022-.027-.053-.046-.088-.052h-.223c-.031.003-.06.016-.084.038-.023.02-.039.05-.045.08-.004.064-.004.128 0 .192v.362h-.668"/>
    <path fill="#F97068" d="M91.823 28.791c0 1.172-.407 2.308-1.151 3.214-.744.906-1.78 1.526-2.929 1.754-1.15.229-2.343.051-3.377-.502-1.033-.553-1.843-1.447-2.291-2.53-.449-1.083-.507-2.288-.167-3.41.341-1.122 1.06-2.09 2.035-2.741.975-.651 2.146-.944 3.312-.829 1.167.116 2.257.632 3.086 1.462.949.95 1.482 2.239 1.482 3.582z"/>
    <path fill="#FDCA7B" d="M88.496 30.837h-3.478v-.424c0-.46.184-.903.51-1.23.326-.325.768-.509 1.23-.509.46 0 .903.184 1.229.51.326.326.51.768.51 1.23v.423z"/>
    <path fill="#FDCA7B" d="M87.777 27.779c-.001.252-.097.496-.267.682-.171.187-.406.303-.657.327-.252.023-.504-.048-.706-.2-.202-.152-.341-.373-.39-.621-.047-.249-.002-.506.13-.722.13-.217.337-.376.58-.449.242-.072.503-.052.73.057.229.11.408.3.504.534.051.124.077.257.076.392z"/>
    <path fill="#EBEBEB" d="M94.805 39.665H77.718v3.489h17.084l.003-3.49zM94.805 44.728H77.718v3.489h17.084l.003-3.489z"/>
    <path fill="#263238" d="M91.769 37.564c-1.782.155-3.572.208-5.36.156-1.789.052-3.58 0-5.362-.156 1.782-.157 3.573-.21 5.362-.16 1.788-.052 3.578 0 5.36.16z"/>
    <path fill="#E0E0E0" d="M80.083 42.18h-.76c-.026 0-.052-.008-.074-.022-.022-.014-.04-.035-.05-.06-.007-.015-.01-.033-.01-.05 0-.067.013-.132.038-.193.025-.062.062-.117.108-.164.047-.047.102-.084.164-.11.06-.025.126-.038.192-.038h.017c.134 0 .262.053.357.148.095.094.148.223.148.357 0 .035-.015.068-.04.092-.025.025-.058.038-.093.038"/>
    <path fill="#E0E0E0" d="M80.006 41.277c0 .074-.029.145-.079.2-.05.055-.119.089-.193.095-.074.007-.148-.014-.207-.059-.06-.044-.1-.11-.114-.182-.014-.073 0-.149.038-.212.039-.063.1-.11.17-.132.072-.02.148-.015.215.017.067.033.12.088.148.157.015.037.023.076.022.116zM80.155 46.527h-.9v.637h.9v-.637z"/>
    <path fill="#E0E0E0" d="M80.256 46.664h-.302v-.197c0-.068-.026-.133-.074-.18-.048-.049-.113-.075-.18-.075-.069 0-.133.026-.181.074-.048.048-.075.113-.075.18v.198h-.302v-.197c0-.148.059-.29.163-.393.104-.105.245-.163.393-.163.147 0 .289.058.393.163.104.104.163.245.163.393l.002.197z"/>
    <path fill="#AFD9FF" d="M76.606.026h-2.928c-.298-.028-.598.004-.883.093-.298.12-.545.34-.697.622-.082.146-.137.304-.165.469-.022.17-.027.342-.016.513v.545c.009.183-.003.368-.036.548-.04.193-.117.376-.229.538-.11.162-.254.3-.42.406-.174.111-.37.181-.575.206-.209.017-.412 0-.623 0H59.389c-.143.006-.286-.008-.425-.04-.285-.07-.54-.23-.73-.454-.196-.223-.32-.5-.357-.795-.016-.146-.022-.293-.017-.44v-.44c.024-.292-.006-.585-.087-.865-.1-.278-.283-.517-.525-.686-.247-.166-.541-.248-.838-.232h-6.763c-.677-.021-1.35.105-1.973.37-.634.28-1.197.7-1.646 1.229-.45.545-.768 1.187-.926 1.876-.044.17-.058.351-.093.526-.035.175 0 .3-.02.45v72.31c-.011.481.051.96.186 1.422.29.977.905 1.826 1.741 2.409.845.571 1.854.849 2.872.79h26.658c.946 0 1.898.016 2.834 0 .929-.056 1.817-.4 2.54-.985.353-.294.661-.637.917-1.02.244-.382.43-.8.548-1.239.121-.438.179-.892.17-1.347v-6.772c0-14.226 0-27.038.02-37.8.02-10.76.02-19.475.028-25.485v-2.13c.013-.623-.1-1.241-.33-1.82-.2-.493-.488-.948-.85-1.34-.295-.326-.639-.603-1.019-.823C80.79.32 80.214.119 79.617.04 79.466.018 79.313.004 79.16 0h-2.57"/>
    <path fill="#263238" d="M79.942 7.34c0 .02-.742.04-1.663.05-.92.008-1.667 0-1.667-.023 0-.022.741-.04 1.662-.05.92-.007 1.668 0 1.668.023zM79.952 8.194c0 .02-.746.04-1.668.046-.922.005-1.668 0-1.668-.02 0-.019.746-.04 1.668-.049.922-.008 1.668 0 1.668.023zM79.957 9.044c0 .02-.741.04-1.662.05-.92.007-1.668 0-1.668-.023 0-.022.742-.04 1.663-.05.92-.008 1.667 0 1.667.023z"/>
    <path fill="#F5F5F5" d="M77.357 20.235H50.749c-.316 0-.63-.062-.922-.183-.292-.121-.557-.298-.781-.522-.224-.224-.401-.49-.522-.782-.121-.292-.184-.605-.184-.921v-.894c0-.317.061-.631.182-.924.12-.293.298-.559.522-.783.224-.225.49-.402.782-.524.293-.121.606-.184.923-.184h26.608c.316 0 .63.063.923.184.292.122.558.3.782.524.224.224.4.49.522.783.12.293.182.607.181.924v.894c0 .316-.062.63-.183.921-.121.293-.298.558-.522.782-.224.224-.49.401-.782.522-.292.121-.605.183-.921.183z"/>
    <path fill="#E8505B" d="M69.775 25.683c0 .033-2.302.057-5.138.057-2.837 0-5.141-.025-5.141-.057 0-.033 2.301-.06 5.14-.06 2.84 0 5.139.027 5.139.06z"/>
    <path fill="#263238" d="M77.97 27.792c0 .033-4.136.058-9.235.058-5.099 0-9.238-.025-9.238-.058 0-.032 4.136-.06 9.238-.06 5.102 0 9.236.027 9.236.06zM77.754 29.302c0 .032-4.087.057-9.13.057-5.04 0-9.128-.025-9.128-.057 0-.033 4.087-.058 9.129-.058s9.13.021 9.13.058z"/>
    <path fill="#E8505B" d="M69.775 37.149c0 .03-2.302.057-5.138.057-2.837 0-5.141-.028-5.141-.057 0-.03 2.301-.06 5.14-.06 2.84 0 5.139.027 5.139.06z"/>
    <path fill="#263238" d="M77.97 39.258c0 .03-4.136.058-9.235.058-5.099 0-9.238-.028-9.238-.058 0-.03 4.136-.06 9.238-.06 5.102 0 9.236.027 9.236.06zM77.754 40.764c0 .033-4.087.058-9.13.058-5.04 0-9.128-.025-9.128-.058 0-.032 4.087-.057 9.129-.057s9.13.024 9.13.057z"/>
    <path fill="#E8505B" d="M69.775 48.627c0 .032-2.302.06-5.138.06-2.837 0-5.141-.028-5.141-.06 0-.033 2.301-.058 5.14-.058 2.84 0 5.139.024 5.139.057z"/>
    <path fill="#263238" d="M77.97 50.722c0 .033-4.136.06-9.235.06-5.099 0-9.238-.028-9.238-.06s4.136-.057 9.238-.057c5.102 0 9.236.026 9.236.057zM77.754 52.23c0 .03-4.087.058-9.13.058-5.04 0-9.128-.028-9.128-.058 0-.03 4.087-.06 9.129-.06s9.13.028 9.13.06z"/>
    <path fill="#E8505B" d="M69.775 60.078c0 .033-2.302.058-5.138.058-2.837 0-5.141-.025-5.141-.058 0-.032 2.301-.057 5.14-.057 2.84 0 5.139.025 5.139.057z"/>
    <path fill="#263238" d="M77.97 62.19c0 .034-4.136.058-9.235.058-5.099 0-9.238-.025-9.238-.057 0-.033 4.136-.058 9.238-.058 5.102 0 9.236.021 9.236.057zM77.754 63.693c0 .034-4.087.06-9.13.06-5.04 0-9.128-.027-9.128-.06 0-.032 4.087-.057 9.129-.057s9.13.027 9.13.057z"/>
    <path fill="#E8505B" d="M69.775 71.464c0 .03-2.302.058-5.138.058-2.837 0-5.141-.028-5.141-.058 0-.03 2.301-.06 5.14-.06 2.84 0 5.139.028 5.139.06z"/>
    <path fill="#263238" d="M77.97 73.586c0 .03-4.136.057-9.235.057-5.099 0-9.238-.028-9.238-.057 0-.03 4.136-.06 9.238-.06 5.102 0 9.236.03 9.236.06zM77.754 75.08c0 .033-4.087.058-9.13.058-5.04 0-9.128-.025-9.128-.058 0-.032 4.087-.06 9.129-.06s9.13.027 9.13.06z"/>
    <path fill="#DCF1FF" d="M48.49 25.596l-.036 6.292 8.372.046.035-6.292-8.372-.046z"/>
    <path fill="#5C2D90" d="M48.453 31.89L51.4 28l1.797 2.455 1.237-1.297 2.392 2.787-8.372-.054z"/>
    <path fill="#DCF1FF" d="M48.492 36.919l-.035 6.292 8.371.047.036-6.293-8.372-.046z"/>
    <path fill="#5C2D90" d="M48.453 43.209l2.946-3.892 1.797 2.458 1.237-1.297 2.392 2.784-8.372-.053z"/>
    <path fill="#DCF1FF" d="M48.019 48.108l-.04 6.293 8.371.046.036-6.292-8.367-.047z"/>
    <path fill="#5C2D90" d="M47.979 54.398l2.946-3.89 1.797 2.457 1.236-1.297 2.392 2.784-8.371-.054z"/>
    <path fill="#000" d="M54.435 49.113c-.001.163-.063.32-.174.44-.11.12-.262.196-.425.21-.163.015-.325-.032-.456-.13-.13-.098-.22-.242-.25-.403-.03-.16 0-.326.084-.466.086-.14.22-.242.377-.289.156-.046.325-.032.472.039.147.071.263.194.324.346.033.08.05.166.048.253z" opacity=".2"/>
    <path fill="#DCF1FF" d="M48.282 60.048l-.063 6.293 8.371.083.063-6.292-8.371-.084z"/>
    <path fill="#5C2D90" d="M48.36 66.289l2.947-3.891 1.796 2.458 1.237-1.297 2.392 2.784-8.371-.054z"/>
    <path fill="#DCF1FF" d="M48.49 70.82l-.036 6.293 8.372.046.035-6.292-8.372-.047z"/>
    <path fill="#5C2D90" d="M48.453 77.113l2.946-3.891 1.797 2.458 1.237-1.303 2.392 2.787-8.372-.051z"/>
    <path fill="#50BFA8" d="M102.639 10.723c0 .947-.328 1.864-.929 2.596-.6.732-1.436 1.233-2.365 1.418-.929.185-1.893.042-2.728-.405-.835-.446-1.49-1.168-1.852-2.043-.363-.875-.41-1.848-.136-2.754.275-.907.856-1.69 1.643-2.216.788-.526 1.733-.762 2.675-.67.943.093 1.824.51 2.494 1.18.767.767 1.198 1.808 1.198 2.894z"/>
    <path fill="#fff" d="M98.297 12.143c-.063 0-.124-.021-.173-.06l-1.371-1.136c-.056-.047-.091-.113-.099-.185-.005-.072.017-.144.063-.2.046-.056.111-.092.183-.1.072-.006.145.015.201.061l1.163.957 1.695-2.071c.047-.055.113-.09.185-.097.071-.007.143.014.2.059.056.046.091.113.099.185.003.036 0 .072-.01.107-.011.034-.028.065-.051.092l-1.865 2.285c-.048.055-.114.09-.186.1h-.026"/>
    <mask id="tvr21f108a" fill="#fff">
        <path d="M93.979 69.678l-3.116-3.107c1.005-1.28 1.551-2.862 1.549-4.49 0-1.45-.43-2.867-1.236-4.073-.805-1.206-1.95-2.145-3.29-2.7-1.34-.555-2.813-.7-4.235-.417-1.422.283-2.729.98-3.754 2.006-1.025 1.025-1.723 2.332-2.006 3.754-.283 1.422-.138 2.896.417 4.235.555 1.34 1.494 2.485 2.7 3.29 1.206.806 2.623 1.236 4.073 1.236 1.628.002 3.21-.544 4.49-1.549l3.107 3.116c.085.086.186.154.298.2.112.047.231.071.352.071.121 0 .241-.024.353-.07.111-.047.213-.115.298-.201.086-.085.154-.187.2-.298.047-.112.071-.232.071-.353 0-.12-.024-.24-.07-.352-.047-.112-.115-.213-.201-.298zM79.583 62.08c0-1.088.322-2.15.926-3.055.605-.904 1.463-1.609 2.468-2.025 1.005-.416 2.11-.525 3.177-.313 1.066.212 2.046.736 2.815 1.505.769.77 1.292 1.749 1.505 2.815.212 1.067.103 2.172-.313 3.177s-1.121 1.863-2.025 2.468c-.905.604-1.968.926-3.055.926-1.458 0-2.857-.58-3.888-1.61-1.031-1.031-1.61-2.43-1.61-3.888z"/>
    </mask>
    <path fill="#1A78C6" d="M93.979 69.678l-3.116-3.107c1.005-1.28 1.551-2.862 1.549-4.49 0-1.45-.43-2.867-1.236-4.073-.805-1.206-1.95-2.145-3.29-2.7-1.34-.555-2.813-.7-4.235-.417-1.422.283-2.729.98-3.754 2.006-1.025 1.025-1.723 2.332-2.006 3.754-.283 1.422-.138 2.896.417 4.235.555 1.34 1.494 2.485 2.7 3.29 1.206.806 2.623 1.236 4.073 1.236 1.628.002 3.21-.544 4.49-1.549l3.107 3.116c.085.086.186.154.298.2.112.047.231.071.352.071.121 0 .241-.024.353-.07.111-.047.213-.115.298-.201.086-.085.154-.187.2-.298.047-.112.071-.232.071-.353 0-.12-.024-.24-.07-.352-.047-.112-.115-.213-.201-.298zM79.583 62.08c0-1.088.322-2.15.926-3.055.605-.904 1.463-1.609 2.468-2.025 1.005-.416 2.11-.525 3.177-.313 1.066.212 2.046.736 2.815 1.505.769.77 1.292 1.749 1.505 2.815.212 1.067.103 2.172-.313 3.177s-1.121 1.863-2.025 2.468c-.905.604-1.968.926-3.055.926-1.458 0-2.857-.58-3.888-1.61-1.031-1.031-1.61-2.43-1.61-3.888z"/>
    <path fill="#1A78C6" d="M90.863 66.571l-4.72-3.704-3.29 4.19 3.774 3.763 4.236-4.249zm1.549-4.49h-6v.007l6-.007zm-7.331 7.33l.007-6h-.007v6zm4.49-1.548l4.25-4.236-3.763-3.773-4.192 3.29 3.705 4.72zm3.107 3.116l4.26-4.225-.006-.006-.005-.005-4.25 4.236zm1.3 0l-4.224-4.26-.018.017-.017.018 4.26 4.225zM79.584 62.08h-6 6zm5.498 5.498v6-6zm13.134-2.15L95.1 62.322l-8.473 8.498 3.116 3.107 8.472-8.498zm-2.632 4.847c1.836-2.34 2.833-5.228 2.829-8.202l-12 .014c0 .283-.094.557-.268.779l9.439 7.409zm2.829-8.195c0-2.637-.782-5.214-2.247-7.406l-9.977 6.667c.146.218.224.476.224.739h12zm-2.247-7.406c-1.465-2.193-3.547-3.901-5.983-4.91L85.59 60.85c.243.101.451.272.598.49l9.977-6.666zm-5.983-4.91c-2.435-1.01-5.116-1.273-7.702-.759l2.341 11.77c.258-.052.526-.025.77.075l4.592-11.086zm-7.702-.759c-2.586.514-4.961 1.784-6.825 3.649l8.485 8.485c.186-.186.423-.313.681-.364l-2.34-11.77zm-6.825 3.649c-1.865 1.864-3.135 4.24-3.649 6.825l11.77 2.341c.05-.258.178-.495.364-.681l-8.485-8.485zm-3.649 6.825c-.514 2.586-.25 5.267.759 7.703L83.85 62.59c-.1-.243-.127-.51-.075-.769l-11.77-2.34zm.759 7.703c1.009 2.435 2.717 4.517 4.91 5.982l6.666-9.977c-.218-.147-.389-.355-.49-.598l-11.086 4.593zm4.91 5.982c2.192 1.465 4.77 2.247 7.406 2.247v-12c-.263 0-.52-.078-.74-.224l-6.666 9.977zm7.398 2.247c2.975.004 5.863-.993 8.203-2.829l-7.41-9.44c-.221.175-.495.27-.778.269l-.014 12zm.25-3.312l3.106 3.115 8.498-8.472-3.107-3.116-8.498 8.473zm3.095 3.104c.643.648 1.408 1.163 2.25 1.514l4.615-11.077c.62.258 1.182.636 1.655 1.113l-8.52 8.45zm2.25 1.514c.843.351 1.747.532 2.66.532v-12c.671 0 1.336.133 1.955.391l-4.615 11.077zm2.66.532c.913 0 1.817-.18 2.66-.532l-4.615-11.077c.62-.258 1.284-.391 1.955-.391v12zm2.66-.532c.843-.351 1.608-.866 2.25-1.514l-8.52-8.45c.474-.477 1.036-.855 1.655-1.113l4.615 11.077zm2.216-1.48c.648-.642 1.163-1.407 1.514-2.25l-11.077-4.615c.258-.62.636-1.181 1.113-1.654l8.45 8.52zm1.514-2.25c.351-.843.532-1.747.532-2.66h-12c0-.67.133-1.335.391-1.955l11.077 4.615zm.532-2.66c0-.913-.181-1.817-.532-2.66l-11.077 4.615c-.258-.62-.391-1.284-.391-1.955h12zm-.532-2.66c-.351-.842-.866-1.607-1.514-2.25l-8.45 8.52c-.477-.473-.855-1.035-1.113-1.655l11.077-4.615zm-14.135-5.587c0 .1-.03.196-.085.279l-9.978-6.667c-1.263 1.89-1.937 4.114-1.937 6.388h12zm-.085.279c-.055.082-.133.147-.225.185l-4.592-11.087c-2.101.87-3.897 2.344-5.16 4.235l9.977 6.667zm-.225.185c-.092.038-.193.047-.29.028l2.341-11.77c-2.23-.443-4.542-.215-6.643.655l4.592 11.087zm-.29.028c-.097-.02-.187-.067-.257-.137l8.485-8.486c-1.608-1.608-3.656-2.703-5.887-3.146l-2.34 11.77zm-.257-.137c-.07-.07-.118-.16-.137-.257l11.77-2.341c-.444-2.23-1.54-4.28-3.148-5.888l-8.485 8.486zm-.137-.257c-.02-.098-.01-.198.028-.29l11.087 4.592c.87-2.1 1.098-4.413.654-6.643l-11.77 2.34zm.028-.29c.038-.092.103-.17.185-.225l6.667 9.977c1.89-1.263 3.365-3.059 4.235-5.16L84.617 61.89zm.185-.225c.083-.055.18-.085.279-.085v12c2.274 0 4.497-.674 6.388-1.938l-6.667-9.977zm.279-.085c.133 0 .26.053.355.147l-8.486 8.485c2.157 2.157 5.081 3.368 8.131 3.368v-12zm.355.147c.094.094.147.222.147.355h-12c0 3.05 1.211 5.974 3.368 8.13l8.485-8.485z" mask="url(#tvr21f108a)"/>
</svg>
