<svg xmlns="http://www.w3.org/2000/svg" width="123" height="77" fill="none" viewBox="0 0 123 77">
    <path fill="#EEEAF4" d="M118.815 76.576c.801-1.522 2.746-6.005 3.838-15.222 1.399-11.81-4.972-19.58-6.527-23.785-1.554-4.205 3.428-13.05-3.729-21.755-7.156-8.704-19.111-8.54-25.794-5.12-6.682 3.42-15.222 6.99-22.072.463C57.68 4.63 52.919 1.52 41.916.171c-11.524-1.412-29.85 5.921-28.552 21.46C14.647 36.954 3.839 34.927.832 49.541-2.737 66.856 6.272 75.1 7.25 76.576h111.565z"/>
    <path fill="#0058C6" d="M70.92 65.245H56.12v9.594H70.92v-9.594z"/>
    <path fill="#0E35AF" d="M70.92 65.245H56.12v4.261H70.92v-4.261z"/>
    <path fill="#5C2D90" d="M31.644 22.029H95.39c.939 0 1.84.37 2.507 1.03.329.327.59.715.768 1.142.178.427.27.885.27 1.348v36.41H28.1v-36.41c0-.463.093-.92.27-1.348.179-.427.44-.815.769-1.141.666-.66 1.567-1.032 2.506-1.031z"/>
    <path fill="#AFD9FF" d="M96.472 26.177H30.57v33.908h65.9V26.177z"/>
    <path fill="#5C2D90" d="M28.1 60.084h70.843v3.558c0 .464-.092.922-.27 1.35-.18.428-.441.816-.77 1.142-.669.662-1.572 1.031-2.512 1.028H31.644c-.94.001-1.84-.37-2.507-1.03-.329-.327-.59-.714-.768-1.142-.178-.427-.27-.885-.27-1.348v-3.558z"/>
    <path fill="#FDCA7B" d="M63.521 65.245c.263-.002.52-.082.738-.23.218-.147.387-.356.486-.599.1-.244.125-.511.072-.769-.052-.258-.18-.494-.366-.68-.187-.185-.424-.311-.683-.362-.258-.05-.525-.023-.768.078-.243.1-.45.272-.596.49-.147.22-.224.476-.224.74 0 .175.035.349.103.51.068.163.167.31.291.433.125.124.273.222.435.289.163.066.337.1.512.1z"/>
    <path fill="#5C2D90" d="M90.21 76.575H36.83c-.236 0-.462-.092-.63-.258-.082-.082-.148-.18-.193-.287-.044-.107-.067-.222-.067-.339 0-.339.07-.675.2-.988.132-.313.324-.596.565-.835.49-.483 1.15-.754 1.838-.753h49.954c.69 0 1.351.272 1.841.757.241.24.433.524.564.838.13.313.198.65.198.99-.002.233-.097.456-.264.62-.167.164-.392.256-.626.255z"/>
    <path fill="#FFF4C0" d="M48.98 29.166H34.262c-.105 0-.21.02-.308.06-.097.04-.186.099-.26.173-.076.075-.135.163-.176.26-.04.098-.062.202-.062.308v3.444c0 .105.021.21.062.307.04.097.1.186.175.26.075.075.164.133.261.173.098.04.203.06.308.06H48.98c.106 0 .21-.02.308-.06.098-.04.186-.099.261-.173.075-.074.135-.163.175-.26.04-.097.062-.202.062-.307v-3.445c0-.105-.021-.21-.062-.307-.04-.097-.1-.185-.175-.26-.075-.074-.163-.133-.261-.173-.098-.04-.202-.06-.308-.06z"/>
    <path fill="#FF777A" d="M37.487 32.23c.072-.172.11-.356.11-.543 0-.187-.036-.371-.107-.544-.071-.172-.176-.328-.308-.46-.133-.131-.29-.235-.462-.306-.348-.144-.74-.146-1.088-.003-.349.143-.627.418-.774.765-.072.172-.11.356-.11.543-.001.186.035.37.107.543.071.172.176.329.308.46.132.132.29.236.462.306.348.145.739.146 1.088.003.349-.142.627-.417.774-.764z"/>
    <path fill="#F7F7F7" d="M35.217 32.733c.262.238.603.37.957.37.353 0 .694-.132.956-.37-.015-.177-.079-.346-.185-.49-.106-.142-.25-.253-.415-.32.067-.05.123-.114.164-.187.04-.074.064-.155.07-.24.006-.083-.006-.167-.036-.246-.03-.078-.076-.15-.136-.209-.111-.109-.26-.17-.417-.17-.156 0-.306.061-.417.17-.055.055-.098.12-.128.191-.03.072-.045.148-.045.225 0 .09.022.18.063.26.04.08.1.15.172.204-.165.066-.308.177-.414.32-.106.143-.17.312-.185.49l-.004.002z"/>
    <path fill="#ED763F" d="M46.22 30.951H38.63v.27h7.589v-.27zM48.493 31.55h-9.862v.278h9.862v-.278zM48.493 32.158h-9.862v.27h9.862v-.27z"/>
    <path fill="#DCF1FF" d="M42.366 42.742h-8.507c-.053 0-.105.01-.154.03-.049.02-.093.05-.13.087-.038.037-.068.081-.088.13-.02.049-.03.1-.031.154v1.513c0 .052.01.105.03.153.021.049.051.093.088.13.038.037.082.067.131.087.049.02.101.03.154.03h8.507c.052 0 .105-.01.153-.03.05-.02.094-.05.131-.087.038-.037.067-.081.088-.13.02-.048.03-.1.03-.153v-1.513c0-.053-.01-.105-.03-.154-.02-.049-.05-.093-.088-.13-.037-.037-.082-.067-.13-.087-.05-.02-.102-.03-.154-.03z"/>
    <path fill="#FDCA7B" d="M53.096 39.474h-8.507c-.053 0-.105.01-.154.03-.049.02-.093.049-.13.086-.038.037-.068.081-.088.13-.02.049-.03.101-.03.154v1.513c0 .053.01.105.03.153.02.05.05.093.088.13.037.038.081.067.13.087.05.02.101.03.154.03h8.507c.053 0 .105-.01.154-.03.048-.02.093-.05.13-.087.038-.037.067-.08.088-.13.02-.048.03-.1.03-.153v-1.513c0-.053-.01-.105-.03-.154-.02-.048-.05-.093-.088-.13-.037-.037-.082-.067-.13-.086-.05-.02-.102-.03-.154-.03z"/>
    <path fill="#AFD9FF" d="M93.18 43.9h-8.504c-.053 0-.106.01-.154.03-.05.02-.094.049-.13.086-.038.037-.068.081-.088.13-.02.049-.031.1-.031.154v1.513c0 .052.01.104.03.153.02.049.05.093.088.13.037.037.082.067.13.087.05.02.102.03.155.03h8.504c.053 0 .105-.01.154-.03.05-.02.093-.05.13-.087.038-.037.068-.081.088-.13.02-.049.031-.1.031-.154V44.3c0-.053-.01-.105-.03-.154-.02-.049-.05-.093-.088-.13-.038-.037-.082-.067-.13-.087-.05-.02-.102-.03-.155-.03z"/>
    <path fill="#DCF1FF" d="M93.18 47.168h-8.504c-.053 0-.106.01-.154.03-.05.02-.094.05-.13.087-.038.037-.068.08-.088.13-.02.048-.031.1-.031.153v1.513c0 .053.01.105.03.154.02.048.05.093.088.13.037.037.082.066.13.086.05.02.102.03.155.03h8.504c.053 0 .105-.01.154-.03.05-.02.093-.049.13-.086.038-.037.068-.082.088-.13.02-.049.031-.101.031-.154v-1.513c0-.053-.01-.105-.03-.154-.02-.048-.05-.092-.088-.13-.038-.037-.082-.066-.13-.086-.05-.02-.102-.03-.155-.03z"/>
    <path fill="#252384" d="M52.35 28.454c-.419 10.548-5.358 11.615 0 19.223 5.36 7.608 23.816 4.91 24.131-.845.315-5.756-3.583-9.232-1.03-16.445 2.553-7.213-23.1-1.933-23.1-1.933z"/>
    <path fill="#0C0835" d="M53.723 31.26c-.622 4.794-2.277 9.524-1.428 12.122 0 0 .093-2.924.644-3.63-.285 2.535.108 5.1 1.137 7.434 1.689 3.328 19.877 2.695 19.877 2.695.204-2.091.204-4.197 0-6.288-.37-2.633-1.082-3.669-1.288-5.085 0 0 1.12 2.302 1.558 3.183.29.69.457 1.424.495 2.17.048-1.424-.227-2.84-.804-4.143-.922-1.797-.37-6.75-.093-8.676.278-1.925-12.822-4.211-14.255-3.439-1.433.773-5.843 3.657-5.843 3.657z"/>
    <path fill="#fff" d="M57.95 44.283c-6.325 2.13-10.853 2.924-12.17 7.033-1.318 4.108-3.15 8.77-3.15 8.77h42.764s-2.117-9.673-4.435-11.275c-2.32-1.603-11.39-4.285-14.164-4.754-2.775-.469-8.845.226-8.845.226z"/>
    <path fill="#DCEDFF" d="M75.38 53.582c.087 2.175-.049 4.354-.404 6.502h1.454l-1.05-6.502zM52.88 55.098c-.065 1.67.04 3.342.312 4.99H52.08l.8-4.99zM47.795 50.145c.588-1.184 1.382-2.253 2.344-3.158-2.168.992-3.688 2.224-4.36 4.329-1.31 4.106-3.15 8.77-3.15 8.77h3.452c-.046-3.39.535-6.761 1.714-9.941z"/>
    <path fill="#0058C6" d="M65.683 52.268c-1.752-.126-3.447-.676-4.94-1.603-1.865-1.401-1.613-2.803-1.613-2.803-.62.052-1.243.052-1.864 0-.503-.1.22-5.317 3.159-5.413 2.94-.095 9.097 1.117 9.853 1.158.755.04 3.249 2.26 2.619 5.074-.101.45-1.32-.82-1.873-.168-.553.651-1.002 3.406-5.34 3.755z"/>
    <path fill="#0E35AF" d="M64.676 51.427c-2.475-1.839-4.342-4.378-5.356-7.29-.264-.764.185-1.192.998-1.321l4.358 8.611zM65.844 52.17c2.162-1.375 4.153-4.752 4.758-5.881.605-1.13.629-2.193-1.221-2.375-1.85-.183-3.537 8.255-3.537 8.255z"/>
    <path fill="#FFC5C7" d="M69.654 37.055c-.556 4.465-.875 6.855.63 8.708 0 0-2.681 5.407-4.6 6.509 0 0-4.586-3.255-5.846-8.46.51-.87.806-1.847.861-2.853.033-1.554-.018-3.108-.153-4.656l9.108.752z"/>
    <path fill="#FE8A8B" d="M68.482 48.957c-2.798 3.364-5.679.526-6.749-.913 1.073 1.619 2.408 3.048 3.95 4.228 1.147-.905 2.1-2.033 2.8-3.315zM60.7 40.956c-.055.976-.33 1.926-.807 2.78 3.151-.519 6.264-1.251 9.316-2.193.044-1.224.23-2.687.453-4.479l-5.56-.463-3.546-.229c.129 1.525.176 3.055.143 4.584z"/>
    <path fill="#FFA6A4" d="M76.899 25.674c.185-2.815.226-5.378-1.987-8.663-2.214-3.284-1.746 5.383-1.71 5.482.037.1 1.96 3.755 1.96 3.755l1.737-.574z"/>
    <path fill="#F97068" d="M75.65 30.133c-.278 1.619-.093 2.956.692 3.091.785.135 1.643-1.07 1.924-2.691.282-1.62-.125-3.04-.907-3.176-.782-.135-1.428 1.155-1.709 2.776z"/>
    <path fill="#CB3034" d="M77.185 31.173l-.49.2-.484 1.326-.186.376c.092.076.202.128.32.15.694.117 1.448-.815 1.806-2.156-.139.097-.3.158-.47.176-.168.018-.339-.007-.496-.072z"/>
    <path fill="#F97068" d="M74.927 25.148c.606-.111 2.327.342 2.521 1.224.446 2.01-.292 6.662-1.646 7.81-.737.345-1.573.41-2.355.186-1.238-.378-1.242-2.342-.79-4.95.453-2.608 1.428-4.114 2.27-4.27z"/>
    <path fill="#CB3034" d="M77.185 31.173c-.629.45-.957 0-.957 0-.427.9-1.21.9-2.207 1.034l-.556-.293s-.543.396-1.053.755c.093.897.401 1.507 1.034 1.701.782.22 1.617.155 2.355-.185.727-.86 1.206-1.9 1.384-3.012z"/>
    <path fill="#FFA6A4" d="M77.45 26.373c-.195-.883-1.916-1.336-2.523-1.224-.051.01-.102.024-.15.044.224-.021.45.003.664.072.214.068.412.18.582.327.17.147.309.327.408.529.099.202.155.422.167.647.129.884 0 4.891-1.31 6.66-.139.272-.341.506-.59.684-.248.177-.535.292-.838.335.66.132 1.346.038 1.946-.267 1.35-1.148 2.088-5.801 1.643-7.807z"/>
    <path fill="#F97068" d="M77.185 31.173c-.629.45-.957 0-.957 0-.163.805-.48 1.57-.935 2.255-.138.272-.34.506-.589.684-.248.177-.536.292-.838.335.66.132 1.345.038 1.945-.267.723-.86 1.198-1.899 1.374-3.007z"/>
    <path fill="#CB3034" d="M75.018 29.79c-.244 1.413-.752 2.507-1.135 2.441-.382-.066-.49-1.265-.244-2.678.246-1.414.752-2.507 1.133-2.442.38.066.49 1.262.246 2.679z"/>
    <path fill="#FFC5C7" d="M55.967 34.283l.053.124c.705 1.489 1.663 2.844 2.832 4.005 1.63 1.753 3.782 2.934 6.137 3.368 2.5.332 4.796-1.049 6.468-2.82.789-.813 1.347-1.822 1.617-2.923.263-1.166.12-2.414.313-3.603.139-.633.333-1.253.579-1.853.704-1.911.968-3.957.773-5.984-.046-.958-.28-1.897-.69-2.763-.71-.832-1.58-1.513-2.558-2-1.33-.878-2.837-1.45-4.415-1.674-1.577-.224-3.184-.095-4.706.377-1.521.472-2.919 1.276-4.092 2.353-1.174 1.078-2.093 2.402-2.693 3.878-.668 1.286-.903 2.752-.67 4.182.38 1.844.316 3.565 1.052 5.333z"/>
    <path fill="#FE8A8B" d="M55.357 27.38c2.928.738 5.992.738 8.92 0 4.183-1.296 5.601-3.89 5.951-5.246 0 0 3.416 2.662 4.101 6.587 0 0 .235-6.971-1.946-7.84-2.18-.867-6.743-2.009-7.248-1.55-.505.459-8.972 5.257-8.972 5.257l-.806 2.793z"/>
    <path fill="#0C0835" d="M60.178 27.482c.347-.167.703-.313 1.068-.436.372-.125.756-.212 1.146-.26.394-.075.798-.075 1.192 0 .401.07.773.253 1.073.528l-.02.051c-.195.01-.39.01-.583 0l-.556-.028c-.37-.015-.714-.103-1.082-.103-.37.003-.739.034-1.104.092-.37.051-.735.137-1.111.222l-.023-.066zM72.51 27.599c-.35-.15-.717-.251-1.093-.303-.37-.054-.743-.072-1.116-.055-.37.017-.736.117-1.104.14-.382.036-.767.052-1.151.046l-.02-.05c.313-.26.683-.444 1.079-.538.396-.083.804-.095 1.204-.037.398.028.792.105 1.172.227.376.12.732.297 1.056.523l-.028.047zM62.483 30.32c.2 0 .36-.327.36-.731 0-.404-.16-.731-.36-.731-.199 0-.36.327-.36.73 0 .405.161.732.36.732zM70.057 30.354c.191 0 .346-.327.346-.73 0-.405-.155-.732-.346-.732-.19 0-.346.327-.346.731 0 .404.155.731.346.731z"/>
    <path fill="#FE8A8B" d="M67.368 33.099c-.1.277-.288.515-.534.678-.124.08-.265.128-.412.144-.146.015-.294-.004-.432-.056-.438-.185-.556-.691.037-.575.227.051.46.064.692.039.12-.013.597-.09.649-.23z"/>
    <path fill="#C31F2A" d="M63.032 35.09c2.09.194 4.19.268 6.29.223-.482 1.59-1.668 3.15-3.297 3.09-1.671-.059-2.636-1.65-2.993-3.313z"/>
    <path fill="#FB8384" d="M67.987 37.577c-.269-.303-.646-.489-1.05-.517-.404-.029-.804.102-1.113.365-.26-.176-.565-.275-.879-.284-.314-.009-.624.072-.894.233.365.467.874.802 1.447.954.185.026.37.05.561.073.36-.002.715-.076 1.046-.217.33-.142.63-.348.879-.606l.003-.001z"/>
    <path fill="#fff" d="M63.421 35.135c.026.266.079.528.158.783 1.639.593 3.416.684 5.107.263.06-.282.107-.567.14-.855-1.354.023-3.95-.049-5.405-.191z"/>
    <path fill="#FFA6A4" d="M72.732 38.184c-.12.01-.239.006-.357-.01l-1.76-.237.07-.498 1.76.237c1.054.144 2.408-1.52 2.76-3.472.01-.064.046-.122.099-.16.033-.026.072-.042.113-.048.042-.006.084-.002.123.012.04.014.075.037.103.068.028.031.048.069.058.109.007.033.007.067 0 .1-.366 2.059-1.73 3.8-2.97 3.899z"/>
    <path fill="#F97068" d="M75.645 34.075c.003.018.003.036 0 .054-.37 2.064-1.732 3.806-2.972 3.905-.12.013-.239.013-.357 0l-1.676-.227-.02.14 1.76.236c.118.016.238.02.356.01 1.24-.1 2.604-1.84 2.975-3.905.007-.038.005-.078-.007-.115-.01-.037-.03-.071-.058-.1v.002z"/>
    <path fill="#252384" d="M70.644 38.215l-1.005-.137c-.165-.022-.316-.11-.417-.242-.05-.066-.087-.141-.108-.221-.021-.08-.026-.163-.015-.245.011-.082.039-.161.08-.232.042-.072.098-.134.164-.184.134-.101.303-.145.47-.122l1.004.137c.166.022.317.11.419.242.05.066.086.141.107.221.021.08.026.164.015.245-.012.082-.04.161-.081.232-.042.072-.098.134-.164.184-.134.1-.302.144-.469.12v.002z"/>
    <path fill="#261B60" d="M71.21 37.191c.005.041.005.083 0 .124-.011.082-.039.161-.08.232-.043.071-.099.134-.165.183-.134.101-.302.145-.469.123l-.879-.119c-.113-.016-.219-.062-.308-.133-.088-.071-.156-.165-.196-.27-.005.014-.008.03-.011.044-.017.124.003.25.058.36.055.113.142.206.25.268.072.041.15.068.233.08l1.004.136c.166.023.335-.02.47-.12.065-.05.121-.113.163-.184.042-.072.07-.15.08-.233.012-.088.005-.177-.021-.262-.026-.085-.07-.163-.13-.23l.002.001z"/>
    <path fill="#252384" d="M69.275 20.906s5.04 2.103 5.09 8.953c1.22-1.528 2.014-3.35 2.305-5.284.29-1.933.067-3.91-.65-5.728-2.376-6.608-9.225-6.36-9.225-6.36l2.48 8.42z"/>
    <path fill="#261B60" d="M69.275 20.905s4.916 2.056 5.083 8.718v-.111c-.083-6.72-2.428-8.508-4.746-9.728l-.556.393.22.728z"/>
    <path fill="#252384" d="M55.07 27.01s13.897.803 15.002-6.212c1.105-7.015-2.452-8.703-4.203-8.87-1.751-.165-5.151-.569-8.06 2.237-2.91 2.806-6.165 4.5-5.803 13.582l3.064-.737z"/>
    <path fill="#0C0835" d="M54.783 25.116c.605-.337 1.21-.68 1.793-1.058s1.167-.765 1.733-1.177c1.138-.82 2.227-1.703 3.264-2.648-.946 1.046-1.952 2.035-3.011 2.965-.53.468-1.075.919-1.634 1.354-.555.44-1.138.85-1.726 1.251l-.42-.687zM62.68 14.761c-3.297 1.769-6.91 6.03-6.99 9.547-.404-.4-.682-.908-.799-1.463-.117-.556-.07-1.133.138-1.662.966-1.883 2.362-3.51 4.077-4.75 1.122-.695 2.322-1.256 3.575-1.672z"/>
    <path fill="#0C0835" d="M55.897 25.507c-.442-1.137-.138-5.01 0-6.115.12-.734.32-1.453.592-2.146.041-.206-.052-.268-.052-.268 2.292-3.505 5.545-4.005 8.843-5.03l-.185-.094c-1.31-.181-2.642-.068-3.902.331-1.26.4-2.415 1.075-3.38 1.977-2.913 2.805-6.165 4.505-5.803 13.582l3.063-.731c3 .129 6.004-.175 8.918-.9-4.635.903-7.652.527-8.094-.606z"/>
    <path fill="#0C0835" d="M68.355 20.783c-1.36 2.112-3.046 4.082-9.48 5.003-4.284.612-4.966-.262-4.966-.262s7.48-.494 10.502-2.018c1.482-.638 2.823-1.563 3.944-2.723z"/>
    <path fill="#FFA6A4" d="M56.03 17.147c.834-2.419 5.003-5.153 9.843-5.218-1.8-.336-3.657-.175-5.373.463-2.529.838-4.69 2.526-6.115 4.777-1.146 1.966 1.645-.022 1.645-.022z"/>
    <path fill="#F97068" d="M60.244 13.05c-1.648.692-3.073 1.827-4.117 3.278-.133.017-1.342.24-1.36.243-.135.197-.266.397-.384.6-.042.07-.075.135-.106.195.359-.043.722-.038 1.08.015.124.024.252.014.37-.03.186-.118.305-.205.305-.205.833-2.419 5.002-5.153 9.843-5.218-1.938-.063-3.865.321-5.63 1.123z"/>
    <path fill="#FFA6A4" d="M55.38 25.674c-.227-4.495.413-7.56.982-8.394.57-.834-1.771-.472-2.242.185-.942 2.64-1.269 5.46-.957 8.245.384 4.242 2.217-.036 2.217-.036z"/>
    <path fill="#F97068" d="M55.944 16.796c.2.075.26.186.117.393-.465 1.22-.762 2.498-.883 3.799-.147 1.677-.076 3.437-.108 3.638-.587.355-1.282.485-1.958.366.013.235.03.475.052.716.021.274.057.547.107.817.45.05 1.07.071 1.639.08.174-.295.331-.6.47-.913-.227-4.495.413-7.56.982-8.394.233-.355-.014-.496-.418-.502z"/>
    <path fill="#F97068" d="M54.99 25.457c-.592-.186-2.35.103-2.635.96-.649 1.95-.398 6.658.833 7.938.698.416 1.522.567 2.322.425 1.271-.249 1.472-2.193 1.297-4.841-.175-2.648-.996-4.242-1.817-4.482z"/>
    <path fill="#CB3034" d="M53.184 34.355c.698.416 1.523.567 2.323.425.736-.143 1.104-.85 1.262-1.927-.61.521-2.17.355-2.96 0 .073-1.229-.025-2.462-.289-3.665-.463 1.029-.865 2.084-1.204 3.16.116.731.414 1.422.868 2.007z"/>
    <path fill="#FFA6A4" d="M54.777 30.074c.16 2.357-.4 4.315-1.252 4.373-.852.058-1.673-1.808-1.84-4.164-.168-2.357.399-4.315 1.25-4.373.852-.059 1.68 1.807 1.842 4.164z"/>
    <path fill="#F97068" d="M53.69 31.066s-1.088.135-1.509 1.77c.352 1.008.843 1.645 1.344 1.61.434-.029.79-.549 1.019-1.367-.252-.05-.499-.126-.736-.227.056-.598.016-1.2-.118-1.786z"/>
    <path fill="#F97068" d="M53.666 30.358c.122 1.765-.2 3.174-.99 3.227-.792.052-1.531-1.334-1.657-3.107-.125-1.772.426-3.242 1.217-3.289.791-.046 1.31 1.396 1.43 3.169z"/>
    <path fill="#CB3034" d="M52.476 32.967c-.204-.003-.405-.057-.584-.157-.178-.099-.33-.24-.44-.413.314.742.757 1.212 1.222 1.18.681-.045 1.012-1.095 1.02-2.51-.173 1.118-.574 1.848-1.218 1.9z"/>
    <path fill="#F97068" d="M32.816 60.212c.028.236-.02.474-.135.68-.42.761-.63 1.621-.604 2.49.08.567.072 1.142-.024 1.705-.268.945-1.273 1.53-1.597 2.458-.287.825-.02 1.86-.616 2.502-.066.086-.156.15-.26.186-.102.035-.213.04-.318.013-.099-.048-.184-.12-.25-.207-.683-.77-1.415-1.706-1.204-2.712.196-.945 1.177-1.582 1.362-2.529.151-.772-.246-1.667.2-2.316.123-.185.3-.318.434-.49.532-.676.334-1.76.946-2.36.2-.19.45-.317.72-.365.152-.032.31-.032.461 0 .152.032.295.095.422.185.126.089.233.203.313.336.08.132.13.28.15.434v-.01z"/>
    <path fill="#FFA6A4" d="M28.932 72.21c-.042-.504-.058-1.009-.077-1.513.023-.504.05-1.009.093-1.511s.1-1.007.185-1.507c.081-.507.223-1.001.422-1.473.37-.927.666-1.89.965-2.847l.436-1.444c.18-.468.354-.941.523-1.417-.073.5-.185.992-.29 1.482l-.433 1.45c-.303.962-.597 1.923-.974 2.873-.192.456-.329.933-.407 1.421-.086.49-.144.987-.185 1.482-.042.496-.072 1-.093 1.5l-.165 1.504z"/>
    <path fill="#FFA6A4" d="M31.609 62.001c-.084.119-.188.221-.308.303-.062.035-.127.066-.193.093-.068.03-.13.072-.185.122l-.024.02-.02-.031c-.049-.073-.107-.143-.153-.216-.047-.073-.093-.15-.133-.228-.08-.158-.135-.327-.164-.502h.015c.123.129.225.275.304.434.039.08.07.16.103.241.032.082.05.168.08.252l-.044-.01c.062-.036.118-.08.168-.132.048-.055.099-.107.152-.156.115-.09.244-.158.383-.201l.019.011zM31.485 63.723c-.086.071-.185.148-.27.214-.094.069-.192.13-.295.185-.103.05-.213.088-.315.145-.1.058-.194.124-.283.197l-.032.026-.031-.04c-.136-.182-.26-.372-.37-.57-.11-.2-.198-.41-.268-.627h.024c.15.17.285.354.402.549.113.196.214.4.3.608l-.063-.014c.106-.047.207-.103.304-.167.092-.064.185-.145.278-.214.093-.072.193-.134.298-.186.104-.055.215-.095.33-.12l-.009.014zM30.87 65.989c-.094.09-.199.166-.312.228-.11.067-.23.114-.355.141-.125.03-.242.087-.344.165-.1.077-.2.161-.302.226l-.076.05-.058-.085c-.086-.124-.16-.256-.22-.395-.063-.14-.11-.286-.142-.436h.017c.111.106.21.225.296.353.085.125.158.258.217.397l-.135-.035c.12-.058.244-.106.371-.144.122-.04.236-.103.334-.185.098-.084.21-.15.33-.194.12-.05.247-.081.376-.093l.002.007z"/>
    <path fill="#FDCA7B" d="M28.125 72.307c-.395-.064-1.881-.535-1.777-.913.445-1.654.89-3.531-.648-4.34-.736-.389-1.674-.586-2.096-1.308-.154-.4-.209-.833-.16-1.26.048-.426.198-.834.438-1.19.494-.71.738-1.565.694-2.429-.185-.883-1.02-1.533-1.15-2.422-.185-1.214 1.003-2.193 2.143-2.667.377-.193.805-.263 1.223-.2.29.08.548.248.741.478.34.492.57 1.052.67 1.641.102.59.073 1.194-.084 1.77-.32 1.155-.325 2.375-.015 3.532.319.788.997 1.528.815 2.355-.071.333-.278.622-.37.953-.213.889.531 1.691.871 2.542.208.554.253 1.157.13 1.736-.123.58-.41 1.112-.825 1.534-.079.079-.175.137-.28.171-.106.034-.218.042-.327.025l.007-.008z"/>
    <path fill="#F97068" d="M28.265 72.326c-.093-.655-.185-1.308-.3-1.954-.028-.163-.063-.324-.093-.487-.03-.163-.04-.325-.066-.486-.048-.326-.104-.648-.167-.968-.116-.644-.281-1.277-.495-1.895-.104-.3-.243-.586-.416-.853-.08-.123-.182-.23-.3-.316-.154-.098-.29-.222-.401-.366-.209-.3-.31-.663-.29-1.028.016-.34.065-.678.148-1.007.153-.649.346-1.28.452-1.915.125-.628.112-1.275-.039-1.897-.053-.15-.092-.3-.143-.453-.05-.151-.113-.298-.186-.44-.154-.29-.34-.561-.556-.81.267.206.505.446.708.715.104.136.197.28.278.43.085.15.147.31.185.479.165.663.18 1.355.047 2.026-.11.661-.308 1.297-.454 1.933-.08.31-.127.626-.142.945-.021.3.06.597.23.844.09.118.2.218.325.298.15.107.28.242.38.396.188.285.34.592.451.913.22.631.39 1.277.512 1.934.061.327.117.654.167.981.024.164.054.327.073.492.02.165.024.33.036.497.046.67.069 1.331.056 1.992z"/>
    <path fill="#F97068" d="M25.634 59.41c.11.045.21.107.298.185.09.07.17.152.234.245.056.1.122.193.198.278.081.079.168.152.26.22h-.118c.039-.087.093-.165.132-.247.044-.082.094-.16.148-.236.052-.074.11-.148.167-.22.058-.074.12-.144.172-.222h.018c-.001.099-.021.197-.06.289-.032.09-.073.179-.12.263-.046.082-.098.161-.155.236-.057.078-.12.152-.185.221l-.074.077-.044-.07c-.054-.097-.116-.19-.185-.277-.078-.082-.166-.154-.262-.214-.09-.066-.17-.144-.239-.232-.073-.087-.14-.18-.197-.278l.012-.018zM27.075 61.92c-.05.111-.112.215-.186.311-.067.096-.143.187-.226.27-.086.083-.185.153-.278.226-.09.077-.17.163-.24.257l-.025.029-.033-.026c-.109-.088-.21-.184-.304-.289-.092-.1-.185-.197-.268-.303-.084-.106-.163-.214-.238-.325-.075-.111-.141-.23-.22-.338l.011-.017c.124.066.237.15.336.248.1.093.193.192.278.298.086.102.162.217.241.325.079.107.146.235.22.329h-.054c.09-.075.173-.16.245-.252.067-.093.13-.197.201-.29.075-.085.156-.166.241-.242.088-.081.18-.157.278-.225l.02.015zM24.425 63.854c.125.147.254.278.386.408.133.13.278.24.416.365.14.126.305.22.484.278.18.05.368.07.556.062l-.08.056c.033-.151.077-.3.13-.447.048-.147.11-.29.185-.426.078-.139.17-.268.278-.386.104-.121.236-.217.384-.277l.011.016c-.109.102-.202.22-.277.35-.076.126-.146.257-.208.39l-.185.406c-.063.137-.116.278-.17.417l-.026.066-.057-.01c-.193-.035-.382-.088-.565-.159-.186-.071-.37-.131-.556-.221-.348-.191-.61-.507-.736-.883l.03-.005zM28.008 65.332c.059.147.085.305.076.463-.003.158-.032.315-.086.463-.059.145-.139.28-.237.403l-.278.365-.018.028-.034-.024c-.154-.101-.316-.192-.483-.27-.163-.087-.33-.162-.499-.232-.168-.07-.336-.144-.51-.208-.173-.064-.347-.126-.526-.194v-.02c.386-.006.768.07 1.12.226.175.079.343.172.503.278.157.109.305.231.442.366h-.052c.106-.106.193-.23.255-.366.059-.134.107-.272.146-.414.091-.278.145-.566.16-.858l.02-.006z"/>
    <path fill="#B4DFF9" d="M30.828 76.575h-4.25c-.206-.013-.4-.101-.545-.248-.145-.146-.231-.34-.242-.546l-.667-5.182c-.025-.123-.025-.25.001-.374.027-.123.079-.239.153-.34.074-.102.17-.187.278-.25.11-.063.23-.102.356-.115h5.585c.126.013.247.053.356.115.11.063.204.148.278.25.074.101.127.217.153.34.026.123.027.25 0 .374l-.67 5.181c-.015.205-.102.398-.246.544-.144.145-.336.235-.54.251z"/>
    <path fill="#A2D4F9" d="M31.491 69.52h-.92c.125.013.246.053.355.115.11.063.205.148.279.25.074.101.126.217.153.34.026.123.026.25 0 .374l-.671 5.181c-.013.206-.1.4-.245.546-.145.146-.337.235-.543.25h.92c.206-.014.4-.102.545-.249.145-.146.231-.34.243-.546l.672-5.182c.025-.123.025-.25-.002-.374-.026-.123-.078-.239-.152-.34-.075-.102-.17-.187-.279-.25-.109-.063-.23-.102-.355-.115z"/>
    <path fill="#FECA7A" d="M110.74 7.092H80.141c-.457 0-.895.18-1.22.502-.16.159-.287.347-.374.555-.086.208-.131.431-.132.657v7.117c0 .225.046.448.132.656.087.208.214.397.374.555.325.322.763.503 1.22.503h3.074l-1.048 2.558 3.482-2.558h25.091c.457 0 .896-.18 1.22-.503.16-.158.287-.347.374-.555.086-.208.131-.431.131-.656V8.806c0-.226-.045-.449-.131-.657-.087-.208-.214-.396-.374-.555-.324-.322-.763-.502-1.22-.502z"/>
    <path fill="#fff" d="M108.721 10.961h-23.32c-.107 0-.21-.042-.285-.117-.038-.037-.067-.081-.088-.13-.02-.048-.03-.1-.03-.153 0-.053.01-.105.03-.153.02-.05.05-.093.088-.13.075-.076.178-.118.285-.118h23.32c.106 0 .208.043.284.118.038.037.067.08.088.13.02.048.031.1.031.153 0 .053-.011.105-.031.153-.021.049-.05.093-.088.13-.076.075-.178.117-.284.117zm.403 1.399c-.001-.053-.011-.105-.031-.154-.021-.048-.051-.092-.088-.129-.076-.075-.178-.118-.284-.118H82.162c-.102.007-.198.053-.269.127-.07.075-.109.173-.109.275 0 .102.04.2.11.275.07.074.166.12.268.127h26.559c.106 0 .208-.044.284-.119.038-.037.067-.082.088-.13.02-.05.031-.102.031-.154zm-11.663 1.8c0-.053-.01-.105-.031-.153-.02-.049-.05-.093-.087-.13-.076-.075-.178-.117-.285-.118H82.16c-.107 0-.21.043-.285.118-.037.037-.067.081-.088.13-.02.048-.03.1-.03.153 0 .053.01.105.03.153.02.049.05.093.088.13.076.075.178.117.285.117h14.901c.107 0 .209-.042.285-.117.036-.037.066-.082.085-.13.02-.049.03-.1.03-.153zM17.6 48.896c-.093-.27-.163-.547-.207-.829-.044-.279-.022-.564.064-.833.12-.339.315-.646.57-.897.093-.093.218-.229.387-.397.176-.178.341-.367.493-.566.155-.196.28-.415.37-.648.084-.203.09-.43.02-.638-.048-.14-.14-.261-.264-.343-.125-.083-.27-.132-.42-.141-.16-.011-.32.011-.47.066-.212.063-.397.193-.528.37-.11.156-.189.33-.236.515-.036.153-.08.305-.132.453l-2.253-.643c.02-.447.14-.884.35-1.28.214-.394.503-.744.85-1.027.372-.305.796-.54 1.251-.695.387-.133.79-.213 1.198-.237.416-.026.834.024 1.232.148.41.13.785.354 1.093.656.359.363.628.805.785 1.291.083.226.145.459.185.696.037.224.042.453.015.678-.03.232-.093.458-.185.673-.102.239-.233.465-.39.672-.213.29-.45.56-.71.808-.226.211-.433.441-.62.688-.075.088-.125.194-.147.307-.022.114-.013.232.024.341l-2.324.812zm.998 2.665l-.049-.132c-.052-.15-.075-.309-.066-.468.008-.159.048-.314.117-.458.106-.217.273-.399.482-.521.208-.123.448-.181.689-.168.241.013.473.097.667.241.194.145.34.343.422.57l.046.134c.083.228.095.475.034.71-.06.234-.19.445-.372.605-.15.134-.331.229-.527.276-.196.047-.4.045-.595-.006-.195-.05-.374-.149-.522-.285-.148-.137-.26-.308-.326-.498z"/>
</svg>
