<svg xmlns="http://www.w3.org/2000/svg" width="123" height="79" fill="none" viewBox="0 0 123 79">
    <path fill="#EEEAF4" d="M118.815 76.576c.801-1.522 2.746-6.005 3.838-15.222 1.399-11.81-4.972-19.58-6.527-23.785-1.554-4.205 3.428-13.05-3.729-21.755-7.156-8.704-19.111-8.54-25.794-5.12-6.682 3.42-15.222 6.99-22.072.463C57.68 4.63 52.919 1.52 41.916.171c-11.524-1.412-29.85 5.921-28.552 21.46C14.647 36.954 3.839 34.927.832 49.541-2.737 66.856 6.272 75.1 7.25 76.576h111.565z"/>
    <path fill="#05A" d="M16.24 77.095s-8.884-19.323-5.552-25.541c3.331-6.218 17.324-4.664 20.433 1.112 3.11 5.775 7.773 24.43 7.773 24.43H16.24z"/>
    <path fill="#1A78C6" d="M31.121 52.666c-.5-.887-1.184-1.657-2.006-2.26-2.594-1.043-7.818-2.538-11.07.714-3.602 3.604 3.853 19.6 7.625 25.975h13.224s-4.664-18.655-7.773-24.43zM110.411 77.095s8.884-19.323 5.553-25.541c-3.332-6.218-17.316-4.664-20.433 1.112-3.118 5.775-7.775 24.43-7.775 24.43h22.655z"/>
    <path fill="#05A" d="M98.766 49.602c-1.344.7-2.465 1.762-3.235 3.066-3.111 5.774-7.775 24.43-7.775 24.43h14.652c3.062-6.598 9.008-20.483 6.892-24.61-1.515-2.949-6.373-3.243-10.534-2.886z"/>
    <path fill="#FFC5C7" d="M65.537 65.764c.871.196 1.756.325 2.648.384.907 0 3.51-1.377 4.019-.87.508.508-1.974 1.174-1.445 1.703.53.53 4.92.72 4.507 1.142-.415.422-2.877.226-2.877.226s3.066.303 3.066.718c0 .417-3.03.153-3.03.153s2.675.38 2.31.747c-.366.367-2.531 0-2.531 0s1.914.284 1.432.762c-1.513.125-3.035-.07-4.468-.571-1.326-.609-1.902-1.286-2.144-1.286-.242 0-2.78-.455-2.78-.455l1.293-2.653z"/>
    <path fill="#DBDADB" d="M48.676 44.191s2.091 14.021 5.036 15.986c2.944 1.965 12.305 4.615 12.305 4.615s.556 3.354-1.679 5.173c0 0-10.627-2.093-14.402-4.757-3.776-2.665-8.248-18.737-7.692-20.414.556-1.678 6.432-.603 6.432-.603z"/>
    <path fill="#39657D" d="M51.161 41.517c-.044 0-.088-.003-.131-.011l.085-.408c.108.006.216-.014.315-.057.099-.043.187-.109.256-.192.608-.601 1.448-2.681.224-9.84l.41-.07c1.204 7.026.462 9.44-.366 10.23-.21.214-.493.339-.793.348z"/>
    <path fill="#FFC5C7" d="M56.307 32.453c.15-1.656.15-3.323 0-4.978-.31-3.236-3.754-3.996-3.754-3.996s-5.96-2.712-8.463 2.387c-2.504 5.1-.226 8.575-.408 9.733-.383 1.487-.86 2.949-1.427 4.376l5.355 2.805s.476-2.118.623-3.058c.146-.94 1.22-1.141 1.22-1.141 1.96.761 4.2 1.265 5.72-1.492.353-.69.61-1.427.761-2.188.391.005.776-.098 1.112-.296.214-.218-.442-1.582-.74-2.152z"/>
    <path fill="#fff" d="M55.353 35.736l-1.697-.482s.063 1.602.592 1.602c.53 0 1.105-1.12 1.105-1.12z"/>
    <path fill="#39657D" d="M55.049 32.022c.107 0 .212-.032.302-.092s.159-.145.2-.244c.041-.1.052-.209.031-.314-.021-.106-.073-.203-.149-.279-.076-.076-.173-.128-.278-.148-.106-.021-.215-.01-.315.03-.099.042-.184.111-.244.2-.06.09-.091.195-.091.303 0 .144.057.282.159.384.102.102.24.16.385.16zM53.656 30.28c.771-.128 1.558-.128 2.33 0 0 0 .225-.917-.688-.917-.647.08-1.236.409-1.642.918z"/>
    <path fill="#05A" d="M56.702 22.327c.55-.1 1.116.006 1.593.296.477.29.831.745.996 1.28.26.786.343 1.621.244 2.444-.341 2.172-2.664 2.687-4.54 2.272-1.028-.275-1.984-.767-2.804-1.445 0 0 .041 2.175-1.09 3.001-1.133.826-.703 1.838-1.21 1.76-.508-.077.277-2.12-1.02-2.484-1.297-.366-1.62 2.024-.762 2.779l-.29.934s-1.283 1.867-2.78 1.93c-1.497.063-2.25-.656-3.122-3.614-.873-2.958-1.188-6.357.43-8.628 1.618-2.272 3.613-1.367 3.669-1.728.055-.362 2.136-2.284 5.105-.762 1.831.93 3.5 2.326 5.581 1.965z"/>
    <path fill="#FE989A" d="M47.474 35.605c-.594.715.762 4.115.762 4.115.072-.288.225-.548.441-.75.216-.203.486-.339.778-.392 0 0-2.476-1.9-1.981-2.973z" opacity=".5"/>
    <path fill="#05A" d="M59.5 26.507c-4.187 1.622-9.041-1.073-9.821-1.954-.02 1.621-.678 3.169-1.833 4.307-2.663 2.697-5.122 1.269-6.523-.093.13.916.33 1.82.594 2.706.874 2.957 1.629 3.674 3.122 3.613 1.494-.06 2.78-1.93 2.78-1.93l.29-.933c-.857-.752-.525-3.127.762-2.78 1.287.348.516 2.409 1.02 2.485.502.076.079-.934 1.209-1.76 1.13-.827 1.09-3.001 1.09-3.001.82.678 1.777 1.17 2.805 1.444 1.82.41 4.076-.07 4.504-2.104z" opacity=".5"/>
    <path fill="#39657D" d="M60.786 62.992c-.52-.002-1.04-.056-1.55-.162-7.16-1.47-8.26-19.374-8.362-21.367-2.205-.782-2.452-9.474-2.474-10.485h.416c.057 2.721.581 9.844 2.294 10.13l.166.026v.17c0 .19.927 19.671 8.036 21.123 5.188 1.062 8.153-3.513 10.778-7.553.827-1.394 1.789-2.704 2.871-3.91 3.45-3.452 5.606-3.503 5.697-3.503v.415c-.02 0-2.093.072-5.406 3.382-1.06 1.189-2.003 2.476-2.82 3.843-2.295 3.552-5.112 7.89-9.646 7.89z"/>
    <path fill="#fff" d="M49.11 30.974c0 .116-.04.229-.112.32-.074.09-.176.151-.29.174-.114.023-.232.006-.335-.048-.103-.054-.183-.143-.228-.25-.045-.107-.051-.226-.018-.338.033-.111.104-.207.2-.272.097-.065.213-.095.328-.084.116.011.224.062.307.144.047.046.084.101.11.162.025.061.038.126.038.192zM41.286 39.49c3.548 1.117 6.623 3.383 8.74 6.441 3.075 4.377 3.134 31.129 3.134 31.129l-22.485.113c1.33-3.92 2.357-7.938 3.07-12.016 1-6.368 1.162-16.194 2.798-20.104 2.492-5.949 4.743-5.562 4.743-5.562z"/>
    <path fill="#DBDADB" d="M44.73 73.02c-2.25.205-4.603-1.84-4.704-.204-.055.88-.525 2.686-.677 4.317l13.804-.072s-.31-26.145-3.385-30.521c-1.252-1.783-4.778-3.384-6.074-4.146-3.15.68-3.902.603-5.207 3.01 0 0-1.125 1.945 2.854 8.081 3.98 6.136 8.694 9.82 9.718 11.659 1.023 1.838.715 4.91-1.333 5.421-2.047.512-8.285-6.34-7.874-4.397.41 1.943 5.13 6.65 2.878 6.851z"/>
    <path fill="#DBDADB" d="M41.286 39.49c1.81 1.256 3.29 2.93 4.317 4.877 1.676 3.218.979 3.498.979 3.498l3.352.975-2.793 1.679 5.764 16.721s-.45-14.904-1.712-18.96C49.93 44.227 42.8 37.935 42.8 37.935l-1.514 1.556z"/>
    <path fill="#DD4C38" d="M63.553 70.765s-.44-.065.4 1.345c.841 1.41 1.846 2.038 2.157 1.894.307-.26.512-.62.579-1.015.066-.396-.01-.803-.214-1.149-.538-1.112-2.922-1.075-2.922-1.075z"/>
    <path fill="#FFC5C7" d="M66.636 73.349c-.507.24-1.002.509-1.482.803-.507.702-1.155 1.291-1.903 1.73-1.097.616-1.988 1.305-2.283.951-.296-.354.871-1.033 1.204-1.322.22-.223.37-.506.43-.814-.563-.02-1.126.047-1.668.2-.932.256-1.977 1.804-2.361 1.65-.587-.236 1.048-2.023 1.048-2.023s-1.667 1.68-1.93 1.378c-.262-.303 1.431-2.08 1.431-2.08.544-.516 1.17-.938 1.853-1.248.94-.365 2.044-.426 3.252-.77 1.041-.463 1.98-1.128 2.763-1.956 0 0 2.383 1.489 1.909 2.165-.712.514-1.469.96-2.263 1.336z"/>
    <path fill="#F97068" d="M82.166 43.38s-3.605 1.161-5.087 6.732c-1.483 5.57-2.352 11.117-3.635 12.828-1.283 1.711-9.894 7.824-9.894 7.824.83.295 1.572.792 2.161 1.446.904 1.05.396 1.793.396 1.793s10.172-3.996 12.442-8.385c2.27-4.39 3.912-16.954 4.095-19.388.182-2.434-.478-2.85-.478-2.85z"/>
    <path fill="#CB3034" d="M78.55 65.618c1.695-3.277 3.044-11.11 3.687-15.882-1.03.017-2.055.119-3.067.303 0 0-.128 10.03-1.56 13.097-1.205 2.588-9.305 7.661-11.811 9.187.776.99.308 1.68.308 1.68s10.177-3.998 12.443-8.385z"/>
    <path fill="#FFC5C7" d="M85.3 42.002c.525-.246 1.022-.548 1.482-.901.356-.356.19-4.758.19-4.758h5.602s-.498 4.297 0 4.796c.134.143.295.257.475.335.179.078.372.119.568.12 0 0 1.094 3.212-2.664 4.584-3.758 1.372-6.363-.986-6.363-2.491 0-1.506.71-1.685.71-1.685z"/>
    <path fill="#FE8A8B" d="M92.566 36.472c.01-.081.013-.128.013-.128h-5.601s.103 2.813-.038 4.124c1.74-.255 4.799-1.103 5.626-3.996z" opacity=".5"/>
    <path fill="#F97068" d="M85.3 42.002s-1.483 3.296 3.03 3.635c4.511.339 5.293-4.047 5.293-4.047s4.354.401 6.049 4.116c1.694 3.715-.517 31.487-.517 31.487H75.003S78.55 68.1 78.55 62.588c0-5.51.381-14.42 1.653-17.73.465-1.194 5.097-2.856 5.097-2.856z"/>
    <path fill="#CB3034" d="M95.325 50.416v10.275c0 3.857-4.774 4.725-4.395 5.99.379 1.264 2.883 2.06 2.35 3.706-.534 1.645-6.34 1.695-6.34 4.974.016.642.187 1.272.498 1.834h11.716s1.522-19.312 1.06-27.886c-.84-.262-1.735-.297-2.593-.103-.859.194-1.65.612-2.296 1.21z"/>
    <path fill="#fff" d="M85.611 41.856s-.654-.38-1.199.491c-.544.872-.926 3.651 2.944 4.087 3.87.437 5.668-1.522 6.049-2.233.445-.745.706-1.586.761-2.453-.11-.49-.996-.26-.996-.26s.263 3.905-4.587 3.96c-4.85.054-2.972-3.592-2.972-3.592z"/>
    <path fill="#FFC5C7" d="M87.604 68.63c-1.322.157-2.656.19-3.984.101-1.262-.286-2.582-.172-3.775.329-1.946.634-5.48 2.854-4.719 3.185.762.33 3.045-1.21 3.045-1.21s-2.655 1.853-2.378 2.207c.276.354 2.995-1.416 2.995-1.416s-2.032 1.972-1.406 2.05c.625.077 2.29-1.544 2.29-1.544s-1.522 1.64-.926 1.712c.596.072 1.92-1.39 1.92-1.39.915-.009 1.82-.208 2.654-.584.206-.212.452-.381.725-.496.272-.116.564-.175.86-.176.47.058 3.509.278 3.509.278l-.81-3.046z"/>
    <path fill="#F97068" d="M96.86 42.678s3.443 1.254 5.329 7.133c1.903 5.962 2.945 18.442.887 20.683-2.059 2.241-16.376 2.284-16.376 2.284-.38-1.452-.635-2.934-.761-4.43 0 0 11.797-1.688 12.427-2.37.63-.683-3.376-14.79-3.52-18.144-.06-.954.09-1.91.438-2.8.348-.891.886-1.695 1.577-2.356z"/>
    <path fill="#CB3034" d="M98.811 44.034c.029.131.058.264.093.404 0 0 2.907 13.739 3.328 18.697.42 4.959-.111 6.432-4.875 7.246-3.68.466-7.39.62-11.095.463.203 1.075.428 1.92.428 1.92s14.318-.034 16.375-2.284c2.058-2.25 1.02-14.722-.886-20.683-.621-2.173-1.779-4.155-3.368-5.763z"/>
    <path fill="#DD4C38" d="M85.937 68.44c-.013 0-.027-.001-.04-.005-.013-.004-.025-.01-.035-.02-.01-.008-.019-.02-.025-.031-.006-.012-.01-.025-.011-.039-.001-.013 0-.027.004-.04.004-.013.01-.025.02-.035.008-.01.019-.019.031-.025.012-.007.025-.01.039-.011.1-.018 10.064-1.688 12.282-2.284.604-.155 1.236-.159 1.841-.01.605.148 1.164.443 1.628.859-.272-.539-.707-.978-1.242-1.257-.305-.164-.436-.294-.428-.424.004-.04.02-.08.047-.11.027-.031.063-.053.103-.063.363-.047.731-.02 1.084.077.353.098.682.266.969.493.01.01.017.021.022.034.006.012.008.026.008.04 0 .013-.002.027-.008.04-.005.012-.012.023-.022.033-.02.019-.047.03-.074.03-.028 0-.055-.011-.074-.03-.526-.4-1.183-.585-1.84-.52.088.093.194.168.312.219.365.177.687.43.946.743.259.313.448.677.555 1.068.005.022.002.046-.009.067-.01.02-.027.037-.048.047-.02.01-.044.012-.066.007-.023-.005-.043-.018-.058-.036-.444-.49-1.013-.85-1.645-1.045-.632-.195-1.305-.215-1.948-.06-2.223.592-12.2 2.266-12.301 2.284l-.017.003zM95.834 53.408c-.023 0-.045-.007-.063-.02-.017-.014-.03-.033-.037-.054-1.853-6.249-.63-8.16-.57-8.237.015-.023.039-.039.066-.044.027-.006.055 0 .078.015.023.016.038.04.043.067.006.027 0 .055-.014.078-.014.017-1.213 1.933.603 8.06.007.026.005.054-.008.078-.014.024-.036.042-.062.05l-.037.007z"/>
    <path fill="#FFC5C7" d="M82.69 26.197s-1.797 5.988.268 10.891c1.222 2.9 3.537 2.436 5.685 1.844 1.506-.488 2.875-1.324 3.997-2.44 1.122-1.116 1.965-2.481 2.462-3.984 1.309-3.646 1.417-7.677-2.712-9.403-4.13-1.726-8.702.427-9.7 3.092z"/>
    <path fill="#482320" d="M84.069 32.553c.004.12-.034.237-.107.331-.073.095-.176.161-.293.188-.116.027-.238.013-.345-.04-.107-.053-.192-.141-.242-.25-.049-.109-.058-.231-.027-.347.03-.115.101-.216.198-.285.097-.07.216-.103.335-.095.119.008.232.057.319.139.099.094.157.223.162.36zM82.19 31.478c.727-.147 1.473-.17 2.207-.071 0 0 .19-.876-.677-.849-.611.092-1.161.423-1.53.92zM87.122 32.667c.004.12.049.235.127.325.08.09.187.151.305.17.118.02.24 0 .343-.06.104-.06.184-.154.227-.266.043-.112.045-.235.007-.349-.038-.113-.115-.21-.216-.274-.102-.063-.222-.09-.341-.075-.119.016-.229.072-.311.159-.047.05-.083.108-.107.171-.025.064-.036.131-.034.2zM88.922 31.482c-.733-.1-1.479-.076-2.205.07 0 0-.241-.861.625-.89.614.054 1.182.349 1.58.82z"/>
    <path fill="#B56167" d="M84.305 34.76c.566.154 1.162.154 1.728 0-.283.265-.658.41-1.045.401-.678-.007-.683-.4-.683-.4z"/>
    <path fill="#fff" d="M84.477 35.967l2.474-.124s-.952 1.566-1.783 1.174c-.219-.068-.407-.21-.533-.402-.126-.191-.182-.42-.158-.648z"/>
    <path fill="#482320" d="M90.361 27.073c-1.094.573-2.307.882-3.541.902-1.235.02-2.457-.248-3.57-.785-.354.205-.647.5-.85.855-.202.356-.307.758-.303 1.168 0 1.124-2.143-1.662-1.463-4.262.68-2.6 7.421-4.277 9.803-3.933.695.046 1.362.296 1.915.719.554.423.97 1 1.196 1.66.608.107 1.167.399 1.603.835.436.437.727.998.833 1.605.498 2.057.595 6.08-1.575 9.08-.066.09-.157.16-.262.2-.105.039-.22.047-.329.022-.109-.025-.209-.082-.286-.163-.077-.081-.13-.183-.149-.294-.04-.272-.058-1.248.113-1.213.892.173 2.13-1.972 1.362-2.826-1.085-1.204-1.977.298-1.977 1.265 0 1.005-.9-.87-.972-1.881-.072-1.012-1.331-1.135-1.548-2.954z"/>
    <path fill="#E4DFE8" d="M81.696 44.639h-1.004v6.052H81.7c1.112 0 2.017-1.354 2.017-3.027s-.91-3.025-2.022-3.025z"/>
    <path fill="#B1A9B9" d="M80.692 50.69c1.112 0 2.017-1.354 2.017-3.025 0-1.672-.906-3.026-2.017-3.026-1.112 0-2.017 1.354-2.017 3.026 0 1.671.899 3.026 2.017 3.026z"/>
    <path fill="#E4DFE8" d="M80.263 45.674H78.93v3.983h1.333c.734 0 1.332-.892 1.332-1.994 0-1.103-.591-1.99-1.333-1.99z"/>
    <path fill="#B1A9B9" d="M78.943 49.657c.733 0 1.328-.892 1.328-1.992s-.598-1.991-1.328-1.991c-.73 0-1.329.892-1.329 1.991 0 1.1.595 1.992 1.329 1.992z"/>
    <path fill="#FFC5C7" d="M70.054 50.84c1.071-.148 2.1-.52 3.019-1.09.926-.776 2.19-2.965 3.318-3.389 1.128-.424 4.025-1.625 4.095-1.06.07.565-2.4 1.696-2.4 1.696s3.108-.99 2.965-.284c-.142.706-2.894 1.414-2.894 1.414s3.178.07 2.542.57c-.635.5-2.474.354-2.474.354s2.331.571 1.766.847c-.622.158-1.27.182-1.903.07 0 0-1.908 2.183-4.104 2.105l-2.896 1.552-1.034-2.785z"/>
    <path fill="#fff" d="M38.836 43.941c-.249.492-.378 1.035-.378 1.585 0 .551.13 1.094.378 1.586 1.693 3.481 9.488 12.8 14.047 13.2 3.94.344 19.296-5.314 19.296-5.314s.42-3.916-1.676-4.474l-16.65 3.353s-7.625-9.585-9.214-11.174c-1.29-1.283-4.579-1.072-5.803 1.238z"/>
    <path fill="#DBDADB" d="M70.054 53.826c-1.408.762-15.903 3.806-17.15 5.056-.68.68-.454 1.141-.108 1.417h.078c3.94.345 19.294-5.315 19.294-5.315s.266-2.501-.7-3.792c-.026.517-.166 1.02-.41 1.476-.245.456-.588.851-1.004 1.158z"/>
    <path fill="#B1A9B9" d="M21.99 64.415h-.735v-1.73c0-.224-.088-.44-.247-.598-.158-.159-.373-.248-.598-.249h-4.57c-.224 0-.44.09-.598.249-.159.158-.248.374-.248.598v1.73h-.729v-1.73c.002-.418.17-.819.466-1.114.296-.295.697-.46 1.116-.46h4.566c.418 0 .817.167 1.112.462.295.295.462.695.463 1.112l.002 1.73z"/>
    <path fill="#fff" d="M23.776 64H7.864v11.607h15.912V64z"/>
    <path fill="#B1A9B9" d="M23.775 75.609h4.676V64.002h-4.676V75.61z"/>
    <path fill="#75DECB" d="M15.82 73.653c.763 0 1.508-.227 2.142-.65.633-.423 1.127-1.025 1.419-1.73.291-.703.368-1.478.219-2.225-.149-.748-.516-1.434-1.055-1.973-.538-.539-1.225-.906-1.972-1.055-.748-.148-1.523-.072-2.227.22-.704.291-1.305.785-1.729 1.419-.423.633-.65 1.378-.65 2.14 0 1.022.407 2.002 1.13 2.725.722.722 1.702 1.129 2.724 1.129z"/>
    <path fill="#fff" d="M17.103 67.204h-2.475v5.2h2.475v-5.2z"/>
    <path fill="#fff" d="M18.466 71.04v-2.475h-5.2v2.476h5.2z"/>
    <path fill="#B1A9B9" d="M32.118 58.33c.654 0 1.28.26 1.743.722.462.462.721 1.089.721 1.742v14.813h-4.927V60.794c0-.323.063-.644.187-.943.124-.299.306-.57.535-.8.228-.228.5-.41.799-.534.299-.123.62-.187.943-.187z"/>
    <path fill="#E4DFE8" d="M33.019 58.33c.323 0 .644.064.943.187.299.124.57.306.8.535.228.229.41.5.533.8.124.298.188.619.188.942v14.813h-4.929V60.794c0-.653.26-1.28.722-1.742.462-.462 1.089-.722 1.743-.722z"/>
    <path fill="#fff" d="M34.025 59.763h-1.907v15.842h1.907V59.763z"/>
    <path fill="#39657D" d="M32.575 60.081h-.105v15.526h.105V60.081zM33.568 60.42h-.794v.105h.794v-.104zM33.252 60.706h-.478v.105h.478v-.105zM33.252 60.99h-.478v.104h.478v-.104zM33.252 61.273h-.478v.105h.478v-.105zM33.252 61.557h-.478v.104h.478v-.104zM33.568 61.85h-.794v.105h.794v-.104zM33.252 62.134h-.478v.105h.478v-.105zM33.252 62.417h-.478v.105h.478v-.105zM33.252 62.703h-.478v.105h.478v-.105zM33.252 62.986h-.478v.105h.478v-.105zM33.568 63.276h-.794v.105h.794v-.105zM33.252 63.563h-.478v.104h.478v-.105zM33.252 63.846h-.478v.105h.478v-.105zM33.252 64.13h-.478v.104h.478v-.104zM33.252 64.413h-.478v.105h.478v-.105zM33.568 64.706h-.794v.104h.794v-.104zM33.252 64.99h-.478v.104h.478v-.105zM33.252 65.274h-.478v.104h.478v-.104zM33.252 65.56h-.478v.104h.478v-.105zM33.252 65.842h-.478v.105h.478v-.105zM33.568 66.133h-.794v.108h.794v-.108zM33.252 66.417h-.478v.102h.478v-.102zM33.252 66.704h-.478v.105h.478v-.105zM33.252 66.982h-.478v.105h.478v-.105zM33.252 67.269h-.478v.105h.478v-.105zM33.568 67.562h-.794v.105h.794v-.105zM33.252 67.846h-.478v.104h.478v-.105zM33.252 68.13h-.478v.104h.478v-.105zM33.252 68.413h-.478v.104h.478v-.104zM33.252 68.698h-.478v.105h.478v-.105zM33.568 68.99h-.794v.104h.794v-.104zM33.252 69.273h-.478v.105h.478v-.105zM33.252 69.559h-.478v.104h.478v-.104zM33.252 69.842h-.478v.105h.478v-.105zM33.252 70.125h-.478v.105h.478v-.105zM33.568 70.418h-.794v.105h.794v-.105zM33.252 70.702h-.478v.104h.478v-.104zM33.252 70.985h-.478v.105h.478v-.105zM33.252 71.269h-.478v.104h.478v-.104zM33.252 71.554h-.478v.105h.478v-.105zM33.568 71.846h-.794v.104h.794v-.104zM33.252 72.128h-.478v.105h.478v-.105zM33.252 72.415h-.478v.104h.478v-.104zM33.252 72.698h-.478v.105h.478v-.105zM33.252 72.982h-.478v.104h.478v-.104zM33.568 73.274h-.794v.105h.794v-.105zM33.252 73.56h-.478v.105h.478v-.105zM33.252 73.838h-.478v.105h.478v-.105zM33.252 74.125h-.478v.104h.478v-.104zM33.252 74.41h-.478v.105h.478v-.105z"/>
    <path fill="#05A" d="M43.58 73.66H29.654v1.946h13.924v-1.945z"/>
    <path fill="#1A78C6" d="M40.806 73.66H29.655v1.946h11.151v-1.945z"/>
    <path fill="#482320" d="M121.072 75.609H3.502c-.21-.005-.417.032-.612.108-.195.077-.372.192-.522.338-.15.146-.27.32-.35.513-.082.193-.123.4-.123.61 0 .21.041.416.123.61.08.192.2.367.35.513.15.146.327.26.522.337.195.077.403.114.612.109h117.566c.41-.01.799-.18 1.085-.473.286-.293.446-.687.446-1.096 0-.41-.16-.803-.446-1.096-.286-.293-.675-.463-1.085-.473h.004z"/>
</svg>
